<?xml version="1.0" encoding="UTF-8"?>
<svg xmlns="http://www.w3.org/2000/svg" xmlns:xlink="http://www.w3.org/1999/xlink" version="1.1" viewBox="0 0 504 634">
  <!-- Generator: Adobe Illustrator 30.3.0, SVG Export Plug-In . SVG Version: 2.1.3 Build 182)  -->
  <defs>
    <style>
      .st0, .st1, .st2, .st3, .st4, .st5, .st6, .st7, .st8, .st9, .st10, .st11, .st12, .st13, .st14, .st15, .st16, .st17, .st18, .st19, .st20 {
        fill: none;
      }

      .st1, .st2, .st21 {
        stroke-width: 7px;
      }

      .st1, .st18 {
        stroke: #f492cf;
      }

      .st2 {
        stroke: #ad3d58;
      }

      .st2, .st3, .st4, .st5, .st6, .st7, .st8, .st9, .st11, .st12, .st13, .st14, .st15, .st16, .st22, .st17, .st21, .st23, .st18, .st19, .st20 {
        stroke-miterlimit: 10;
      }

      .st24, .st25 {
        fill: #ad3d58;
      }

      .st3 {
        stroke: #1747a5;
      }

      .st3, .st6, .st23, .st18 {
        stroke-width: 5px;
      }

      .st4 {
        stroke: #6e757c;
      }

      .st4, .st7, .st9, .st13, .st14, .st16, .st17, .st19 {
        stroke-width: 4px;
      }

      .st26 {
        fill: #c73632;
      }

      .st27, .st28 {
        opacity: 0;
      }

      .st27, .st29 {
        fill: #fff;
      }

      .st30 {
        fill: #d14768;
      }

      .st31 {
        fill: #843544;
      }

      .st32 {
        fill: #ef419d;
        opacity: .2;
      }

      .st5 {
        stroke: #b7625f;
        stroke-width: 2px;
      }

      .st6 {
        stroke: #a3384c;
      }

      .st33 {
        fill: #3d3d3d;
      }

      .st7, .st11, .st34 {
        opacity: .3;
      }

      .st7, .st11, .st19, .st20 {
        stroke: #000;
      }

      .st35 {
        fill: #c9c9c9;
      }

      .st8 {
        stroke: #aa6565;
        stroke-width: 9px;
      }

      .st36 {
        clip-path: url(#clippath-10);
      }

      .st9 {
        stroke: #f266b6;
      }

      .st10, .st11, .st12 {
        stroke-width: 6px;
      }

      .st10, .st22, .st23 {
        stroke: #fff;
      }

      .st37 {
        fill: #a3384c;
      }

      .st37, .st38 {
        opacity: 0;
      }

      .st39 {
        clip-path: url(#clippath-1);
      }

      .st40 {
        clip-path: url(#clippath-3);
      }

      .st41 {
        clip-path: url(#clippath-4);
      }

      .st42 {
        clip-path: url(#clippath-2);
      }

      .st43 {
        clip-path: url(#clippath-7);
      }

      .st44 {
        clip-path: url(#clippath-6);
      }

      .st45 {
        clip-path: url(#clippath-9);
      }

      .st46 {
        clip-path: url(#clippath-8);
      }

      .st47 {
        clip-path: url(#clippath-5);
      }

      .st12 {
        stroke: #d34242;
      }

      .st13 {
        stroke: #72913c;
      }

      .st48 {
        fill: #ffff54;
      }

      .st28 {
        fill: #1747a5;
      }

      .st14 {
        stroke: #076ddd;
      }

      .st49 {
        fill: #db3335;
      }

      .st15 {
        stroke: #ef419d;
      }

      .st15, .st22, .st20 {
        stroke-width: 3px;
      }

      .st50 {
        fill: #d67689;
      }

      .st25 {
        opacity: 0;
      }

      .st16 {
        stroke: #f24ec7;
      }

      .st51 {
        fill: #2060e0;
      }

      .st52 {
        fill: #bc6464;
      }

      .st53 {
        opacity: .6;
      }

      .st54 {
        fill: #c90d0d;
      }

      .st55 {
        fill: #f7d34b;
      }

      .st22, .st23 {
        fill: #3a3a3a;
      }

      .st17 {
        stroke: #7f1926;
      }

      .st21 {
        fill: #848484;
        stroke: #3d3d3d;
      }

      .st56 {
        fill: #2b65bf;
      }

      .st57 {
        fill: #f266b6;
      }

      .st58 {
        opacity: 0;
      }

      .st59 {
        fill: #15388f;
      }

      .st60 {
        fill: #f24ec7;
      }

      .st61 {
        clip-path: url(#clippath);
      }

      .st62 {
        display: none;
        fill: #db3832;
      }

      .st63 {
        font-family: Arial-BoldMT, Arial;
        font-size: 14.4px;
        font-weight: 700;
        letter-spacing: 0em;
      }
    </style>
    <clipPath id="clippath">
      <polygon class="st0" points="178.5 258.1 301.3 258.1 301.3 250.4 299.4 250.4 299.4 245.5 297.5 245.5 297.5 236.2 295.6 236.2 295.6 221 298.7 221 298.7 216.7 301.5 216.7 301.5 187.3 350.7 187.3 350.7 101.2 291.8 101.2 291.8 80.8 252.4 80.8 252.4 140.1 210.4 140.1 209.5 189.7 224.9 227.4 218.7 228.6 190 244.3 186.2 251.6 178.5 258.1"/>
    </clipPath>
    <clipPath id="clippath-1">
      <polygon class="st0" points="303.8 68.6 303.8 102.1 291.8 102.1 291.8 82.1 252.4 82.1 252.4 141.2 210.7 141.2 224.7 83.8 303.8 68.6"/>
    </clipPath>
    <clipPath id="clippath-2">
      <polygon class="st0" points="336.7 161.9 286.1 161.9 286.6 120.4 337.2 120.4 336.7 161.9"/>
    </clipPath>
    <clipPath id="clippath-3">
      <rect class="st0" x="299.1" y="187.9" width="50.4" height="97.4"/>
    </clipPath>
    <clipPath id="clippath-4">
      <polyline class="st0" points="305.9 277.5 316.6 277.5 316.6 280.4 327.1 280.4 327.1 283.3 335.2 283.3 335.2 256.5 306.3 256.5 305.9 277.5"/>
    </clipPath>
    <clipPath id="clippath-5">
      <polygon class="st0" points="176.8 258.1 232.4 258.1 232.4 419.8 68.6 419.8 59 414.9 19.7 320.5 58.4 311.4 152.6 273.4 176.8 258.1"/>
    </clipPath>
    <clipPath id="clippath-6">
      <polygon id="_x3C_Clipping_Path_x3E_" class="st0" points="303.1 298.9 352.1 298.9 352.1 287.9 332.7 287.9 332.7 284.7 324.6 284.7 324.6 281.9 314.2 281.9 314.2 278.8 303.5 278.8 303.1 298.9"/>
    </clipPath>
    <clipPath id="clippath-7">
      <circle class="st0" cx="52.1" cy="205.4" r="18.2"/>
    </clipPath>
    <clipPath id="clippath-8">
      <circle class="st0" cx="51.3" cy="257" r="18.5"/>
    </clipPath>
    <clipPath id="clippath-9">
      <circle class="st0" cx="52.3" cy="154.3" r="18.3"/>
    </clipPath>
    <clipPath id="clippath-10">
      <circle class="st0" cx="52.3" cy="102.8" r="18.6"/>
    </clipPath>
  </defs>
  <g id="concesiones">
    <g id="china">
      <g id="el-encanto-i">
        <g class="st61">
          <g id="area-main">
            <circle class="st5" cx="223" cy="252.4" r="9.8"/>
            <circle class="st5" cx="236.7" cy="238.7" r="9.8"/>
            <circle class="st5" cx="250.5" cy="225" r="9.8"/>
            <circle class="st5" cx="264.2" cy="211.2" r="9.8"/>
            <circle class="st5" cx="277.9" cy="197.5" r="9.8"/>
            <circle class="st5" cx="291.7" cy="183.8" r="9.8"/>
            <circle class="st5" cx="305.4" cy="170" r="9.8"/>
            <circle class="st5" cx="319.1" cy="156.3" r="9.8"/>
            <circle class="st5" cx="332.9" cy="142.6" r="9.8"/>
            <circle class="st5" cx="346.6" cy="128.8" r="9.8"/>
            <circle class="st5" cx="360.3" cy="115.1" r="9.8"/>
            <circle class="st5" cx="374.1" cy="101.4" r="9.8"/>
            <circle class="st5" cx="387.8" cy="87.6" r="9.8"/>
            <circle class="st5" cx="253.5" cy="252.4" r="9.8"/>
            <circle class="st5" cx="267.2" cy="238.7" r="9.8"/>
            <circle class="st5" cx="281" cy="225" r="9.8"/>
            <circle class="st5" cx="294.7" cy="211.2" r="9.8"/>
            <circle class="st5" cx="308.4" cy="197.5" r="9.8"/>
            <circle class="st5" cx="322.2" cy="183.8" r="9.8"/>
            <circle class="st5" cx="335.9" cy="170" r="9.8"/>
            <circle class="st5" cx="349.6" cy="156.3" r="9.8"/>
            <circle class="st5" cx="363.4" cy="142.6" r="9.8"/>
            <circle class="st5" cx="377.1" cy="128.8" r="9.8"/>
            <circle class="st5" cx="390.8" cy="115.1" r="9.8"/>
            <circle class="st5" cx="404.6" cy="101.4" r="9.8"/>
            <circle class="st5" cx="418.3" cy="87.6" r="9.8"/>
            <circle class="st5" cx="328.2" cy="238.7" r="9.8"/>
            <circle class="st5" cx="284" cy="252.4" r="9.8"/>
            <circle class="st5" cx="297.7" cy="238.7" r="9.8"/>
            <circle class="st5" cx="311.4" cy="225" r="9.8"/>
            <circle class="st5" cx="325.2" cy="211.2" r="9.8"/>
            <circle class="st5" cx="338.9" cy="197.5" r="9.8"/>
            <circle class="st5" cx="352.6" cy="183.8" r="9.8"/>
            <circle class="st5" cx="366.4" cy="170" r="9.8"/>
            <circle class="st5" cx="380.1" cy="156.3" r="9.8"/>
            <circle class="st5" cx="393.8" cy="142.6" r="9.8"/>
            <circle class="st5" cx="407.6" cy="128.8" r="9.8"/>
            <circle class="st5" cx="421.3" cy="115.1" r="9.8"/>
            <circle class="st5" cx="435" cy="101.4" r="9.8"/>
            <circle class="st5" cx="448.8" cy="87.6" r="9.8"/>
            <circle class="st5" cx="341.9" cy="225" r="9.8"/>
            <circle class="st5" cx="355.7" cy="211.2" r="9.8"/>
            <circle class="st5" cx="369.4" cy="197.5" r="9.8"/>
            <circle class="st5" cx="383.1" cy="183.8" r="9.8"/>
            <circle class="st5" cx="396.9" cy="170" r="9.8"/>
            <circle class="st5" cx="410.6" cy="156.3" r="9.8"/>
            <circle class="st5" cx="424.3" cy="142.6" r="9.8"/>
            <circle class="st5" cx="438.1" cy="128.8" r="9.8"/>
            <circle class="st5" cx="451.8" cy="115.1" r="9.8"/>
            <circle class="st5" cx="465.5" cy="101.4" r="9.8"/>
            <circle class="st5" cx="479.3" cy="87.6" r="9.8"/>
            <circle class="st5" cx="192.8" cy="252.4" r="9.8"/>
            <circle class="st5" cx="206.5" cy="238.7" r="9.8"/>
            <circle class="st5" cx="220.3" cy="225" r="9.8"/>
            <circle class="st5" cx="234" cy="211.2" r="9.8"/>
            <circle class="st5" cx="247.7" cy="197.5" r="9.8"/>
            <circle class="st5" cx="261.5" cy="183.8" r="9.8"/>
            <circle class="st5" cx="275.2" cy="170" r="9.8"/>
            <circle class="st5" cx="288.9" cy="156.3" r="9.8"/>
            <circle class="st5" cx="302.7" cy="142.6" r="9.8"/>
            <circle class="st5" cx="316.4" cy="128.8" r="9.8"/>
            <circle class="st5" cx="330.1" cy="115.1" r="9.8"/>
            <circle class="st5" cx="343.9" cy="101.4" r="9.8"/>
            <circle class="st5" cx="357.6" cy="87.6" r="9.8"/>
            <circle class="st5" cx="102.2" cy="252.4" r="9.8"/>
            <circle class="st5" cx="162.6" cy="252.4" r="9.8"/>
            <circle class="st5" cx="176.3" cy="238.7" r="9.8"/>
            <circle class="st5" cx="190.1" cy="225" r="9.8"/>
            <circle class="st5" cx="203.8" cy="211.2" r="9.8"/>
            <circle class="st5" cx="217.5" cy="197.5" r="9.8"/>
            <circle class="st5" cx="231.3" cy="183.8" r="9.8"/>
            <circle class="st5" cx="245" cy="170" r="9.8"/>
            <circle class="st5" cx="258.7" cy="156.3" r="9.8"/>
            <circle class="st5" cx="272.5" cy="142.6" r="9.8"/>
            <circle class="st5" cx="286.2" cy="128.8" r="9.8"/>
            <circle class="st5" cx="299.9" cy="115.1" r="9.8"/>
            <circle class="st5" cx="313.7" cy="101.4" r="9.8"/>
            <circle class="st5" cx="327.4" cy="87.6" r="9.8"/>
            <circle class="st5" cx="132.4" cy="252.4" r="9.8"/>
            <circle class="st5" cx="146.1" cy="238.7" r="9.8"/>
            <circle class="st5" cx="159.8" cy="225" r="9.8"/>
            <circle class="st5" cx="173.6" cy="211.2" r="9.8"/>
            <circle class="st5" cx="187.3" cy="197.5" r="9.8"/>
            <circle class="st5" cx="201" cy="183.8" r="9.8"/>
            <circle class="st5" cx="214.8" cy="170" r="9.8"/>
            <circle class="st5" cx="228.5" cy="156.3" r="9.8"/>
            <circle class="st5" cx="242.2" cy="142.6" r="9.8"/>
            <circle class="st5" cx="256" cy="128.8" r="9.8"/>
            <circle class="st5" cx="269.7" cy="115.1" r="9.8"/>
            <circle class="st5" cx="283.4" cy="101.4" r="9.8"/>
            <circle class="st5" cx="297.2" cy="87.6" r="9.8"/>
            <circle class="st5" cx="115.9" cy="238.7" r="9.8"/>
            <circle class="st5" cx="129.6" cy="225" r="9.8"/>
            <circle class="st5" cx="143.4" cy="211.2" r="9.8"/>
            <circle class="st5" cx="157.1" cy="197.5" r="9.8"/>
            <circle class="st5" cx="170.8" cy="183.8" r="9.8"/>
            <circle class="st5" cx="184.6" cy="170" r="9.8"/>
            <circle class="st5" cx="198.3" cy="156.3" r="9.8"/>
            <circle class="st5" cx="212" cy="142.6" r="9.8"/>
            <circle class="st5" cx="225.8" cy="128.8" r="9.8"/>
            <circle class="st5" cx="239.5" cy="115.1" r="9.8"/>
            <circle class="st5" cx="253.2" cy="101.4" r="9.8"/>
            <circle class="st5" cx="267" cy="87.6" r="9.8"/>
            <circle class="st5" cx="72" cy="252.4" r="9.8"/>
            <circle class="st5" cx="85.7" cy="238.7" r="9.8"/>
            <circle class="st5" cx="99.4" cy="225" r="9.8"/>
            <circle class="st5" cx="113.2" cy="211.2" r="9.8"/>
            <circle class="st5" cx="126.9" cy="197.5" r="9.8"/>
            <circle class="st5" cx="140.6" cy="183.8" r="9.8"/>
            <circle class="st5" cx="154.4" cy="170" r="9.8"/>
            <circle class="st5" cx="168.1" cy="156.3" r="9.8"/>
            <circle class="st5" cx="181.8" cy="142.6" r="9.8"/>
            <circle class="st5" cx="195.6" cy="128.8" r="9.8"/>
            <circle class="st5" cx="209.3" cy="115.1" r="9.8"/>
            <circle class="st5" cx="223" cy="101.4" r="9.8"/>
            <circle class="st5" cx="236.8" cy="87.6" r="9.8"/>
          </g>
          <g id="area-hover-target" class="st38">
            <polygon class="st52" points="178.5 258.1 301.3 258.1 301.3 250.4 299.4 250.4 299.4 245.5 297.5 245.5 297.5 236.2 295.6 236.2 295.6 221 298.7 221 298.7 216.7 301.5 216.7 301.5 187.3 350.7 187.3 350.7 101.2 291.8 101.2 291.8 80.8 252.4 80.8 252.4 140.1 210.4 140.1 209.5 189.7 224.9 227.4 218.7 228.6 190 244.3 186.2 251.6 178.5 258.1"/>
          </g>
          <g id="border">
            <polygon class="st8" points="178.5 258.1 301.3 258.1 301.3 250.4 299.4 250.4 299.4 245.5 297.5 245.5 297.5 236.2 295.6 236.2 295.6 221 298.7 221 298.7 216.7 301.5 216.7 301.5 187.3 350.7 187.3 350.7 101.2 291.8 101.2 291.8 80.8 252.4 80.8 252.4 140.1 210.4 140.1 209.5 189.7 224.9 227.4 218.7 228.6 190 244.3 186.2 251.6 178.5 258.1"/>
          </g>
        </g>
      </g>
      <g id="columbus">
        <g id="area-main1" data-name="area-main">
          <rect class="st31" x="275.5" y="167.4" width="32.5" height="13.8"/>
        </g>
        <g id="border1" data-name="border">
          <rect class="st31" x="275.5" y="167.4" width="32.5" height="13.8"/>
        </g>
        <g id="area-hover-target1" data-name="area-hover-target">
          <rect class="st31" x="275.5" y="167.4" width="32.5" height="13.8"/>
        </g>
      </g>
      <g id="el-encanto-ii">
        <g class="st39">
          <g id="area-main2" data-name="area-main">
            <path class="st50" d="M319.7,134.4c-15.1-12.8-29.9-27.2-44-41.2-14-14.1-28.3-28.9-41.2-44,15.1,12.8,29.9,27.2,44,41.2,14,14.1,28.3,28.9,41.2,44h0Z"/>
            <path class="st50" d="M329,134.4c-15.1-12.8-29.9-27.2-44-41.2-14-14.1-28.3-28.9-41.2-44,15.1,12.8,29.9,27.2,44,41.2,14,14.1,28.3,28.9,41.2,44h0Z"/>
            <path class="st50" d="M338.3,134.4c-15.1-12.8-29.9-27.2-44-41.2-14-14.1-28.3-28.9-41.2-44,15.1,12.8,29.9,27.2,44,41.2,14,14.1,28.3,28.9,41.2,44h0Z"/>
            <path class="st50" d="M347.6,134.4c-15.1-12.8-29.9-27.2-44-41.2-14-14.1-28.3-28.9-41.2-44,15.1,12.8,29.9,27.2,44,41.2,14,14.1,28.3,28.9,41.2,44h0Z"/>
            <path class="st50" d="M220.4,178.9c-15.1-12.8-29.9-27.2-44-41.2-14-14.1-28.3-28.9-41.2-44,15.1,12.8,29.9,27.2,44,41.2,14,14.1,28.3,28.9,41.2,44h0Z"/>
            <path class="st50" d="M229.7,178.9c-15.1-12.8-29.9-27.2-44-41.2-14-14.1-28.3-28.9-41.2-44,15.1,12.8,29.9,27.2,44,41.2,14,14.1,28.3,28.9,41.2,44h0Z"/>
            <path class="st50" d="M239,178.9c-15.1-12.8-29.9-27.2-44-41.2-14-14.1-28.3-28.9-41.2-44,15.1,12.8,29.9,27.2,44,41.2,14,14.1,28.3,28.9,41.2,44h0Z"/>
            <path class="st50" d="M248.3,178.9c-15.1-12.8-29.9-27.2-44-41.2-14-14.1-28.3-28.9-41.2-44,15.1,12.8,29.9,27.2,44,41.2,14,14.1,28.3,28.9,41.2,44h0Z"/>
            <path class="st50" d="M257.6,178.9c-15.1-12.8-29.9-27.2-44-41.2-14-14.1-28.3-28.9-41.2-44,15.1,12.8,29.9,27.2,44,41.2,14,14.1,28.3,28.9,41.2,44h0Z"/>
            <path class="st50" d="M267,178.9c-15.1-12.8-29.9-27.2-44-41.2-14-14.1-28.3-28.9-41.2-44,15.1,12.8,29.9,27.2,44,41.2,14,14.1,28.3,28.9,41.2,44h0Z"/>
            <path class="st50" d="M276.3,178.9c-15.1-12.8-29.9-27.2-44-41.2-14-14.1-28.3-28.9-41.2-44,15.1,12.8,29.9,27.2,44,41.2,14,14.1,28.3,28.9,41.2,44h0Z"/>
            <path class="st50" d="M285.6,178.9c-15.1-12.8-29.9-27.2-44-41.2-14-14.1-28.3-28.9-41.2-44,15.1,12.8,29.9,27.2,44,41.2,14,14.1,28.3,28.9,41.2,44h0Z"/>
            <path class="st50" d="M294.9,178.9c-15.1-12.8-29.9-27.2-44-41.2-14-14.1-28.3-28.9-41.2-44,15.1,12.8,29.9,27.2,44,41.2,14,14.1,28.3,28.9,41.2,44h0Z"/>
            <path class="st50" d="M304.2,178.9c-18.2-16-36.3-33.6-53.6-50.8-17.1-17.3-34.8-35.3-50.8-53.6,18.3,16,36.3,33.6,53.6,50.8,17.1,17.3,34.8,35.3,50.8,53.6h0Z"/>
            <path class="st50" d="M304.2,170.5c-18.2-16-36.3-33.6-53.6-50.8-17.1-17.3-34.8-35.3-50.8-53.6,18.3,16,36.3,33.6,53.6,50.8,17.1,17.3,34.8,35.3,50.8,53.6h0Z"/>
            <path class="st50" d="M304.2,162.1c-18.2-16-36.3-33.6-53.6-50.8-17.1-17.3-34.8-35.3-50.8-53.6,18.3,16,36.3,33.6,53.6,50.8,17.1,17.3,34.8,35.3,50.8,53.6h0Z"/>
            <path class="st50" d="M304.2,153.7c-18.2-16-36.3-33.6-53.6-50.8-17.1-17.3-34.8-35.3-50.8-53.6,18.3,16,36.3,33.6,53.6,50.8,17.1,17.3,34.8,35.3,50.8,53.6h0Z"/>
            <path class="st50" d="M304.2,145.2c-18.2-16-36.3-33.6-53.6-50.8-17.1-17.3-34.8-35.3-50.8-53.6,18.3,16,36.3,33.6,53.6,50.8,17.1,17.3,34.8,35.3,50.8,53.6h0Z"/>
            <path class="st50" d="M304.2,136.8c-18.2-16-36.3-33.6-53.6-50.8-17.1-17.3-34.8-35.3-50.8-53.6,18.3,16,36.3,33.6,53.6,50.8,17.1,17.3,34.8,35.3,50.8,53.6h0Z"/>
            <path class="st50" d="M304.2,128.4c-18.2-16-36.3-33.6-53.6-50.8-17.1-17.3-34.8-35.3-50.8-53.6,18.3,16,36.3,33.6,53.6,50.8,17.1,17.3,34.8,35.3,50.8,53.6h0Z"/>
            <path class="st50" d="M356.9,134.4c-15.1-12.8-29.9-27.2-44-41.2-14-14.1-28.3-28.9-41.2-44,15.1,12.8,29.9,27.2,44,41.2,14,14.1,28.3,28.9,41.2,44h0Z"/>
            <path class="st50" d="M366.2,134.4c-15.1-12.8-29.9-27.2-44-41.2-14-14.1-28.3-28.9-41.2-44,15.1,12.8,29.9,27.2,44,41.2,14,14.1,28.3,28.9,41.2,44h0Z"/>
          </g>
          <polygon id="area-hover-target2" data-name="area-hover-target" class="st37" points="303.8 68.6 303.8 102.1 291.8 102.1 291.8 82.1 252.4 82.1 252.4 141.2 210.7 141.2 224.7 83.8 303.8 68.6"/>
          <polygon id="border2" data-name="border" class="st6" points="303.8 68.6 303.8 102.1 291.8 102.1 291.8 82.1 252.4 82.1 252.4 141.2 210.7 141.2 224.7 83.8 303.8 68.6"/>
        </g>
      </g>
      <g id="caribe">
        <g id="area-main3" data-name="area-main">
          <g class="st42">
            <circle class="st30" cx="366.7" cy="179.5" r="3.3"/>
            <circle class="st30" cx="245.9" cy="186.9" r="3.3"/>
            <circle class="st30" cx="258.3" cy="179.5" r="3.3"/>
            <circle class="st30" cx="268.2" cy="179.5" r="3.3"/>
            <circle class="st30" cx="278" cy="179.5" r="3.3"/>
            <circle class="st30" cx="287.9" cy="179.5" r="3.3"/>
            <circle class="st30" cx="297.7" cy="179.5" r="3.3"/>
            <circle class="st30" cx="307.6" cy="179.5" r="3.3"/>
            <circle class="st30" cx="317.4" cy="179.5" r="3.3"/>
            <circle class="st30" cx="327.3" cy="179.5" r="3.3"/>
            <circle class="st30" cx="337.1" cy="179.5" r="3.3"/>
            <circle class="st30" cx="347" cy="179.5" r="3.3"/>
            <circle class="st30" cx="356.8" cy="179.5" r="3.3"/>
            <circle class="st30" cx="376.5" cy="179.5" r="3.3"/>
            <circle class="st30" cx="245.9" cy="177.4" r="3.3"/>
            <circle class="st30" cx="258.3" cy="170" r="3.3"/>
            <circle class="st30" cx="268.2" cy="170" r="3.3"/>
            <circle class="st30" cx="278" cy="170" r="3.3"/>
            <circle class="st30" cx="287.9" cy="170" r="3.3"/>
            <circle class="st30" cx="297.7" cy="170" r="3.3"/>
            <circle class="st30" cx="307.6" cy="170" r="3.3"/>
            <circle class="st30" cx="317.4" cy="170" r="3.3"/>
            <circle class="st30" cx="327.3" cy="170" r="3.3"/>
            <circle class="st30" cx="337.1" cy="170" r="3.3"/>
            <circle class="st30" cx="347" cy="170" r="3.3"/>
            <circle class="st30" cx="356.8" cy="170" r="3.3"/>
            <circle class="st30" cx="366.7" cy="170" r="3.3"/>
            <circle class="st30" cx="376.5" cy="170" r="3.3"/>
            <circle class="st30" cx="245.9" cy="167.9" r="3.3"/>
            <circle class="st30" cx="258.3" cy="160.5" r="3.3"/>
            <circle class="st30" cx="268.2" cy="160.5" r="3.3"/>
            <circle class="st30" cx="278" cy="160.5" r="3.3"/>
            <circle class="st30" cx="287.9" cy="160.5" r="3.3"/>
            <circle class="st30" cx="297.7" cy="160.5" r="3.3"/>
            <circle class="st30" cx="307.6" cy="160.5" r="3.3"/>
            <circle class="st30" cx="317.4" cy="160.5" r="3.3"/>
            <circle class="st30" cx="327.3" cy="160.5" r="3.3"/>
            <circle class="st30" cx="337.1" cy="160.5" r="3.3"/>
            <circle class="st30" cx="347" cy="160.5" r="3.3"/>
            <circle class="st30" cx="356.8" cy="160.5" r="3.3"/>
            <circle class="st30" cx="366.7" cy="160.5" r="3.3"/>
            <circle class="st30" cx="376.5" cy="160.5" r="3.3"/>
            <circle class="st30" cx="245.9" cy="158.5" r="3.3"/>
            <circle class="st30" cx="258.3" cy="151" r="3.3"/>
            <circle class="st30" cx="268.2" cy="151" r="3.3"/>
            <circle class="st30" cx="278" cy="151" r="3.3"/>
            <circle class="st30" cx="287.9" cy="151" r="3.3"/>
            <circle class="st30" cx="297.7" cy="151" r="3.3"/>
            <circle class="st30" cx="307.6" cy="151" r="3.3"/>
            <circle class="st30" cx="317.4" cy="151" r="3.3"/>
            <circle class="st30" cx="327.3" cy="151" r="3.3"/>
            <circle class="st30" cx="337.1" cy="151" r="3.3"/>
            <circle class="st30" cx="347" cy="151" r="3.3"/>
            <circle class="st30" cx="356.8" cy="151" r="3.3"/>
            <circle class="st30" cx="366.7" cy="151" r="3.3"/>
            <circle class="st30" cx="376.5" cy="151" r="3.3"/>
            <circle class="st30" cx="245.9" cy="149" r="3.3"/>
            <circle class="st30" cx="258.3" cy="141.5" r="3.3"/>
            <circle class="st30" cx="268.2" cy="141.5" r="3.3"/>
            <circle class="st30" cx="278" cy="141.5" r="3.3"/>
            <circle class="st30" cx="287.9" cy="141.5" r="3.3"/>
            <circle class="st30" cx="297.7" cy="141.5" r="3.3"/>
            <circle class="st30" cx="307.6" cy="141.5" r="3.3"/>
            <circle class="st30" cx="317.4" cy="141.5" r="3.3"/>
            <circle class="st30" cx="327.3" cy="141.5" r="3.3"/>
            <circle class="st30" cx="337.1" cy="141.5" r="3.3"/>
            <circle class="st30" cx="347" cy="141.5" r="3.3"/>
            <circle class="st30" cx="356.8" cy="141.5" r="3.3"/>
            <circle class="st30" cx="366.7" cy="141.5" r="3.3"/>
            <circle class="st30" cx="376.5" cy="141.5" r="3.3"/>
            <circle class="st30" cx="245.9" cy="139.5" r="3.3"/>
            <circle class="st30" cx="258.3" cy="132.1" r="3.3"/>
            <circle class="st30" cx="268.2" cy="132.1" r="3.3"/>
            <circle class="st30" cx="278" cy="132.1" r="3.3"/>
            <circle class="st30" cx="287.9" cy="132.1" r="3.3"/>
            <circle class="st30" cx="297.7" cy="132.1" r="3.3"/>
            <circle class="st30" cx="307.6" cy="132.1" r="3.3"/>
            <circle class="st30" cx="317.4" cy="132.1" r="3.3"/>
            <circle class="st30" cx="327.3" cy="132.1" r="3.3"/>
            <circle class="st30" cx="337.1" cy="132.1" r="3.3"/>
            <circle class="st30" cx="347" cy="132.1" r="3.3"/>
            <circle class="st30" cx="356.8" cy="132.1" r="3.3"/>
            <circle class="st30" cx="366.7" cy="132.1" r="3.3"/>
            <circle class="st30" cx="376.5" cy="132.1" r="3.3"/>
            <circle class="st30" cx="245.9" cy="130" r="3.3"/>
            <circle class="st30" cx="258.3" cy="122.6" r="3.3"/>
            <circle class="st30" cx="268.2" cy="122.6" r="3.3"/>
            <circle class="st30" cx="278" cy="122.6" r="3.3"/>
            <circle class="st30" cx="287.9" cy="122.6" r="3.3"/>
            <circle class="st30" cx="297.7" cy="122.6" r="3.3"/>
            <circle class="st30" cx="307.6" cy="122.6" r="3.3"/>
            <circle class="st30" cx="317.4" cy="122.6" r="3.3"/>
            <circle class="st30" cx="327.3" cy="122.6" r="3.3"/>
            <circle class="st30" cx="337.1" cy="122.6" r="3.3"/>
            <circle class="st30" cx="347" cy="122.6" r="3.3"/>
            <circle class="st30" cx="356.8" cy="122.6" r="3.3"/>
            <circle class="st30" cx="366.7" cy="122.6" r="3.3"/>
            <circle class="st30" cx="376.5" cy="122.6" r="3.3"/>
            <circle class="st30" cx="245.9" cy="120.5" r="3.3"/>
            <circle class="st30" cx="258.3" cy="113.1" r="3.3"/>
            <circle class="st30" cx="268.2" cy="113.1" r="3.3"/>
            <circle class="st30" cx="278" cy="113.1" r="3.3"/>
            <circle class="st30" cx="287.9" cy="113.1" r="3.3"/>
            <circle class="st30" cx="297.7" cy="113.1" r="3.3"/>
            <circle class="st30" cx="307.6" cy="113.1" r="3.3"/>
            <circle class="st30" cx="317.4" cy="113.1" r="3.3"/>
            <circle class="st30" cx="327.3" cy="113.1" r="3.3"/>
            <circle class="st30" cx="337.1" cy="113.1" r="3.3"/>
            <circle class="st30" cx="347" cy="113.1" r="3.3"/>
            <circle class="st30" cx="366.7" cy="113.1" r="3.3"/>
            <circle class="st30" cx="376.5" cy="113.1" r="3.3"/>
            <circle class="st30" cx="245.9" cy="111" r="3.3"/>
            <circle class="st30" cx="258.3" cy="103.6" r="3.3"/>
            <circle class="st30" cx="268.2" cy="103.6" r="3.3"/>
            <circle class="st30" cx="278" cy="103.6" r="3.3"/>
            <circle class="st30" cx="287.9" cy="103.6" r="3.3"/>
            <circle class="st30" cx="297.7" cy="103.6" r="3.3"/>
            <circle class="st30" cx="307.6" cy="103.6" r="3.3"/>
            <circle class="st30" cx="317.4" cy="103.6" r="3.3"/>
            <circle class="st30" cx="327.3" cy="103.6" r="3.3"/>
            <circle class="st30" cx="337.1" cy="103.6" r="3.3"/>
            <circle class="st30" cx="347" cy="103.6" r="3.3"/>
            <circle class="st30" cx="356.8" cy="103.6" r="3.3"/>
            <circle class="st30" cx="366.7" cy="103.6" r="3.3"/>
            <circle class="st30" cx="376.5" cy="103.6" r="3.3"/>
            <polygon id="border3" data-name="border" class="st12" points="336.7 161.9 286.1 161.9 286.6 120.4 337.2 120.4 336.7 161.9"/>
          </g>
        </g>
        <g id="area-hover-target3" data-name="area-hover-target">
          <rect class="st27" x="287.1" y="121.1" width="48.8" height="40.3"/>
        </g>
        <rect id="border4" data-name="border" class="st19" x="287.1" y="121.1" width="48.8" height="40.3"/>
      </g>
      <g id="yulu-awaskira">
        <g class="st40">
          <g id="area-main4" data-name="area-main">
            <polygon class="st24" points="344 187.2 426.5 272.5 341.2 190 344 187.2 344 187.2"/>
            <polygon class="st24" points="334.9 187.2 417.4 272.5 332 190 334.9 187.2 334.9 187.2"/>
            <polygon class="st24" points="325.7 187.2 408.2 272.5 322.9 190 325.7 187.2 325.7 187.2"/>
            <polygon class="st24" points="316.5 187.2 399 272.5 313.7 190 316.5 187.2 316.5 187.2"/>
            <polygon class="st24" points="307.4 187.2 389.8 272.5 304.5 190 307.4 187.2 307.4 187.2"/>
            <polygon class="st24" points="298.2 187.2 380.7 272.5 295.4 190 298.2 187.2 298.2 187.2"/>
            <polygon class="st24" points="289 187.2 371.5 272.5 286.2 190 289 187.2 289 187.2"/>
            <polygon class="st24" points="279.8 187.2 362.3 272.5 277 190 279.8 187.2 279.8 187.2"/>
            <polygon class="st24" points="270.7 187.2 353.2 272.5 267.8 190 270.7 187.2 270.7 187.2"/>
            <polygon class="st24" points="261.5 187.2 362.9 291.4 258.7 190 261.5 187.2 261.5 187.2"/>
            <polygon class="st24" points="261.5 195.5 362.9 299.7 258.7 198.3 261.5 195.5 261.5 195.5"/>
            <polygon class="st24" points="261.5 203.8 362.9 308 258.7 206.6 261.5 203.8 261.5 203.8"/>
            <polygon class="st24" points="261.5 212.1 362.9 316.3 258.7 214.9 261.5 212.1 261.5 212.1"/>
            <polygon class="st24" points="261.5 220.3 362.9 324.6 258.7 223.2 261.5 220.3 261.5 220.3"/>
            <polygon class="st24" points="261.5 228.6 362.9 332.9 258.7 231.5 261.5 228.6 261.5 228.6"/>
            <polygon class="st24" points="261.5 236.9 362.9 341.2 258.7 239.8 261.5 236.9 261.5 236.9"/>
          </g>
          <rect id="border5" data-name="border" class="st2" x="299.1" y="187.9" width="50.4" height="97.4"/>
          <rect id="area-hover-target4" data-name="area-hover-target" class="st25" x="299.1" y="187.9" width="50.4" height="97.4"/>
        </g>
      </g>
    </g>
    <g id="reserva-minera">
      <g id="reserva-minera1" data-name="reserva-minera">
        <g id="area-main5" data-name="area-main">
          <g class="st41">
            <g>
              <line class="st4" x1="310.2" y1="254.8" x2="310.2" y2="289.1"/>
              <line class="st4" x1="314.6" y1="254.8" x2="314.6" y2="289.1"/>
              <line class="st4" x1="319.1" y1="254.8" x2="319.1" y2="289.1"/>
              <line class="st4" x1="323.5" y1="254.8" x2="323.5" y2="289.1"/>
              <line class="st4" x1="328" y1="254.8" x2="328" y2="289.1"/>
              <line class="st4" x1="332.4" y1="254.8" x2="332.4" y2="289.1"/>
            </g>
          </g>
        </g>
        <polyline id="area-hover-target5" data-name="area-hover-target" class="st58" points="305.9 277.5 316.6 277.5 316.6 280.4 327.1 280.4 327.1 283.3 335.2 283.3 335.2 256.5 306.3 256.5 305.9 277.5"/>
        <polyline id="border6" data-name="border" class="st20" points="305.9 277.5 316.6 277.5 316.6 280.4 327.1 280.4 327.1 283.3 335.2 283.3 335.2 256.5 306.3 256.5 305.9 277.5"/>
      </g>
    </g>
    <g id="canada">
      <g id="walpa-tara">
        <g id="area-main6" data-name="area-main">
          <g class="st47">
            <g>
              <path class="st51" d="M-95.5,252.9c12.8,10.7,25.2,22.5,37,34.2,12.1,11.7,22.6,24.8,34.2,37,15.4,16.3,32.6,30.7,48.5,46.5,24.2,23.3,47.4,47.7,68.9,73.5,0,0-.4.4-.4.4-25.5-21.9-49.6-45.4-72.5-69.9-15.6-16.1-29.8-33.5-45.8-49.1-12-11.7-25.1-22.4-36.6-34.7-2.9-3-8.7-9.1-11.5-12.2-7.6-8.2-15.1-16.6-22.1-25.3l.4-.4h0Z"/>
              <path class="st51" d="M-83.9,252.9c12.8,10.7,25.2,22.5,37,34.2,12.1,11.7,22.6,24.8,34.2,37,15.4,16.3,32.6,30.7,48.5,46.5,24.2,23.3,47.4,47.7,68.9,73.5,0,0-.4.4-.4.4-25.5-21.9-49.6-45.4-72.5-69.9-15.6-16.1-29.8-33.5-45.8-49.1-12-11.7-25.1-22.4-36.6-34.7-2.9-3-8.7-9.1-11.5-12.2-7.6-8.2-15.1-16.6-22.1-25.3,0,0,.4-.4.4-.4h0Z"/>
              <path class="st51" d="M-72.3,252.9c12.8,10.7,25.2,22.5,37,34.2,12.1,11.7,22.6,24.8,34.2,37,15.4,16.3,32.6,30.7,48.5,46.5,24.2,23.3,47.4,47.7,68.9,73.5,0,0-.4.4-.4.4-25.5-21.9-49.6-45.4-72.5-69.9-15.6-16.1-29.8-33.5-45.8-49.1-12-11.7-25.1-22.4-36.6-34.7-2.9-3-8.7-9.1-11.5-12.2-7.6-8.2-15.1-16.6-22.1-25.3,0,0,.4-.4.4-.4h0Z"/>
              <path class="st51" d="M-60.7,252.9c12.8,10.7,25.2,22.5,37,34.2,12.1,11.7,22.6,24.8,34.2,37,15.4,16.3,32.6,30.7,48.5,46.5,24.2,23.3,47.4,47.7,68.9,73.5,0,0-.4.4-.4.4-25.5-21.9-49.6-45.4-72.5-69.9-15.6-16.1-29.8-33.5-45.8-49.1-12-11.7-25.1-22.4-36.6-34.7-2.9-3-8.7-9.1-11.5-12.2-7.6-8.2-15.1-16.6-22.1-25.3,0,0,.4-.4.4-.4h0Z"/>
              <path class="st51" d="M-49.1,252.9c12.8,10.7,25.2,22.5,37,34.2,12.1,11.7,22.6,24.8,34.2,37,15.4,16.3,32.6,30.7,48.5,46.5,24.2,23.3,47.4,47.7,68.9,73.5,0,0-.4.4-.4.4-25.5-21.9-49.6-45.4-72.5-69.9-15.6-16.1-29.8-33.5-45.8-49.1-12-11.7-25.1-22.4-36.6-34.7-2.9-3-8.7-9.1-11.5-12.2-7.6-8.2-15.1-16.6-22.1-25.3,0,0,.4-.4.4-.4h0Z"/>
              <path class="st51" d="M-37.5,252.9c12.8,10.7,25.2,22.5,37,34.2,12.1,11.7,22.6,24.8,34.2,37,15.4,16.3,32.6,30.7,48.5,46.5,24.2,23.3,47.4,47.7,68.9,73.5,0,0-.4.4-.4.4-25.5-21.9-49.6-45.4-72.5-69.9-15.6-16.1-29.8-33.5-45.8-49.1-12-11.7-25.1-22.4-36.6-34.7-2.9-3-8.7-9.1-11.5-12.2-7.6-8.2-15.1-16.6-22.1-25.3l.4-.4h0Z"/>
              <path class="st51" d="M-25.9,252.9c12.8,10.7,25.2,22.5,37,34.2,12.1,11.7,22.6,24.8,34.2,37,15.4,16.3,32.6,30.7,48.5,46.5,24.2,23.3,47.4,47.7,68.9,73.5,0,0-.4.4-.4.4-25.5-21.9-49.6-45.4-72.5-69.9-15.6-16.1-29.8-33.5-45.8-49.1-12-11.7-25.1-22.4-36.6-34.7-2.9-3-8.7-9.1-11.5-12.2-7.6-8.2-15.1-16.6-22.1-25.3,0,0,.4-.4.4-.4h0Z"/>
              <path class="st51" d="M-14.3,252.9c12.8,10.7,25.2,22.5,37,34.2,12.1,11.7,22.6,24.8,34.2,37,15.4,16.3,32.6,30.7,48.5,46.5,24.2,23.3,47.4,47.7,68.9,73.5,0,0-.4.4-.4.4-25.5-21.9-49.6-45.4-72.5-69.9-15.6-16.1-29.8-33.5-45.8-49.1-12-11.7-25.1-22.4-36.6-34.7-2.9-3-8.7-9.1-11.5-12.2-7.6-8.2-15.1-16.6-22.1-25.3,0,0,.4-.4.4-.4h0Z"/>
              <path class="st51" d="M-2.7,252.9c12.8,10.7,25.2,22.5,37,34.2,12.1,11.7,22.6,24.8,34.2,37,15.4,16.3,32.6,30.7,48.5,46.5,24.2,23.3,47.4,47.7,68.9,73.5,0,0-.4.4-.4.4-25.5-21.9-49.6-45.4-72.5-69.9-15.6-16.1-29.8-33.5-45.8-49.1-12-11.7-25.1-22.4-36.6-34.7-2.9-3-8.7-9.1-11.5-12.2-7.6-8.2-15.1-16.6-22.1-25.3,0,0,.4-.4.4-.4h0Z"/>
              <path class="st51" d="M8.9,252.9c12.8,10.7,25.2,22.5,37,34.2,12.1,11.7,22.6,24.8,34.2,37,15.4,16.3,32.6,30.7,48.5,46.5,24.2,23.3,47.4,47.7,68.9,73.5,0,0-.4.4-.4.4-25.5-21.9-49.6-45.4-72.5-69.9-15.6-16.1-29.8-33.5-45.8-49.1-12-11.7-25.1-22.4-36.6-34.7-2.9-3-8.7-9.1-11.5-12.2-7.6-8.2-15.1-16.6-22.1-25.3,0,0,.4-.4.4-.4h0Z"/>
              <path class="st51" d="M20.5,252.9c12.8,10.7,25.2,22.5,37,34.2,12.1,11.7,22.6,24.8,34.2,37,15.4,16.3,32.6,30.7,48.5,46.5,24.2,23.3,47.4,47.7,68.9,73.5,0,0-.4.4-.4.4-25.5-21.9-49.6-45.4-72.5-69.9-15.6-16.1-29.8-33.5-45.8-49.1-12-11.7-25.1-22.4-36.6-34.7-2.9-3-8.7-9.1-11.5-12.2-7.6-8.2-15.1-16.6-22.1-25.3,0,0,.4-.4.4-.4h0Z"/>
              <path class="st51" d="M32.2,252.9c12.8,10.7,25.2,22.5,37,34.2,12.1,11.7,22.6,24.8,34.2,37,15.4,16.3,32.6,30.7,48.5,46.5,24.2,23.3,47.4,47.7,68.9,73.5,0,0-.4.4-.4.4-25.5-21.9-49.6-45.4-72.5-69.9-15.6-16.1-29.8-33.5-45.8-49.1-12-11.7-25.1-22.4-36.6-34.7-2.9-3-8.7-9.1-11.5-12.2-7.6-8.2-15.1-16.6-22.1-25.3,0,0,.4-.4.4-.4h0Z"/>
              <path class="st51" d="M43.8,252.9c12.8,10.7,25.2,22.5,37,34.2,12.1,11.7,22.6,24.8,34.2,37,15.4,16.3,32.6,30.7,48.5,46.5,24.2,23.3,47.4,47.7,68.9,73.5,0,0-.4.4-.4.4-25.5-21.9-49.6-45.4-72.5-69.9-15.6-16.1-29.8-33.5-45.8-49.1-12-11.7-25.1-22.4-36.6-34.7-2.9-3-8.7-9.1-11.5-12.2-7.6-8.2-15.1-16.6-22.1-25.3,0,0,.4-.4.4-.4h0Z"/>
              <path class="st51" d="M55.4,252.9c12.8,10.7,25.2,22.5,37,34.2,12.1,11.7,22.6,24.8,34.2,37,15.4,16.3,32.6,30.7,48.5,46.5,24.2,23.3,47.4,47.7,68.9,73.5,0,0-.4.4-.4.4-25.5-21.9-49.6-45.4-72.5-69.9-15.6-16.1-29.8-33.5-45.8-49.1-12-11.7-25.1-22.4-36.6-34.7-2.9-3-8.7-9.1-11.5-12.2-7.6-8.2-15.1-16.6-22.1-25.3l.4-.4h0Z"/>
              <path class="st51" d="M67,252.9c12.8,10.7,25.2,22.5,37,34.2,12.1,11.7,22.6,24.8,34.2,37,15.4,16.3,32.6,30.7,48.5,46.5,24.2,23.3,47.4,47.7,68.9,73.5,0,0-.4.4-.4.4-25.5-21.9-49.6-45.4-72.5-69.9-15.6-16.1-29.8-33.5-45.8-49.1-12-11.7-25.1-22.4-36.6-34.7-2.9-3-8.7-9.1-11.5-12.2-7.6-8.2-15.1-16.6-22.1-25.3,0,0,.4-.4.4-.4h0Z"/>
              <path class="st51" d="M78.6,252.9c12.8,10.7,25.2,22.5,37,34.2,12.1,11.7,22.6,24.8,34.2,37,15.4,16.3,32.6,30.7,48.5,46.5,24.2,23.3,47.4,47.7,68.9,73.5,0,0-.4.4-.4.4-25.5-21.9-49.6-45.4-72.5-69.9-15.6-16.1-29.8-33.5-45.8-49.1-12-11.7-25.1-22.4-36.6-34.7-2.9-3-8.7-9.1-11.5-12.2-7.6-8.2-15.1-16.6-22.1-25.3,0,0,.4-.4.4-.4h0Z"/>
              <path class="st51" d="M90.2,252.9c12.8,10.7,25.2,22.5,37,34.2,12.1,11.7,22.6,24.8,34.2,37,15.4,16.3,32.6,30.7,48.5,46.5,24.2,23.3,47.4,47.7,68.9,73.5,0,0-.4.4-.4.4-25.5-21.9-49.6-45.4-72.5-69.9-15.6-16.1-29.8-33.5-45.8-49.1-12-11.7-25.1-22.4-36.6-34.7-2.9-3-8.7-9.1-11.5-12.2-7.6-8.2-15.1-16.6-22.1-25.3,0,0,.4-.4.4-.4h0Z"/>
              <path class="st51" d="M101.8,252.9c12.8,10.7,25.2,22.5,37,34.2,12.1,11.7,22.6,24.8,34.2,37,15.4,16.3,32.6,30.7,48.5,46.5,24.2,23.3,47.4,47.7,68.9,73.5,0,0-.4.4-.4.4-25.5-21.9-49.6-45.4-72.5-69.9-15.6-16.1-29.8-33.5-45.8-49.1-12-11.7-25.1-22.4-36.6-34.7-2.9-3-8.7-9.1-11.5-12.2-7.6-8.2-15.1-16.6-22.1-25.3,0,0,.4-.4.4-.4h0Z"/>
              <path class="st51" d="M113.4,252.9c12.8,10.7,25.2,22.5,37,34.2,12.1,11.7,22.6,24.8,34.2,37,15.4,16.3,32.6,30.7,48.5,46.5,24.2,23.3,47.4,47.7,68.9,73.5,0,0-.4.4-.4.4-25.5-21.9-49.6-45.4-72.5-69.9-15.6-16.1-29.8-33.5-45.8-49.1-12-11.7-25.1-22.4-36.6-34.7-2.9-3-8.7-9.1-11.5-12.2-7.6-8.2-15.1-16.6-22.1-25.3,0,0,.4-.4.4-.4h0Z"/>
              <path class="st51" d="M125,252.9c12.8,10.7,25.2,22.5,37,34.2,12.1,11.7,22.6,24.8,34.2,37,15.4,16.3,32.6,30.7,48.5,46.5,24.2,23.3,47.4,47.7,68.9,73.5,0,0-.4.4-.4.4-25.5-21.9-49.6-45.4-72.5-69.9-15.6-16.1-29.8-33.5-45.8-49.1-12-11.7-25.1-22.4-36.6-34.7-2.9-3-8.7-9.1-11.5-12.2-7.6-8.2-15.1-16.6-22.1-25.3,0,0,.4-.4.4-.4h0Z"/>
              <path class="st51" d="M136.6,252.9c12.8,10.7,25.2,22.5,37,34.2,12.1,11.7,22.6,24.8,34.2,37,15.4,16.3,32.6,30.7,48.5,46.5,24.2,23.3,47.4,47.7,68.9,73.5,0,0-.4.4-.4.4-25.5-21.9-49.6-45.4-72.5-69.9-15.6-16.1-29.8-33.5-45.8-49.1-12-11.7-25.1-22.4-36.6-34.7-2.9-3-8.7-9.1-11.5-12.2-7.6-8.2-15.1-16.6-22.1-25.3,0,0,.4-.4.4-.4h0Z"/>
              <path class="st51" d="M148.3,252.9c12.8,10.7,25.2,22.5,37,34.2,12.1,11.7,22.6,24.8,34.2,37,15.4,16.3,32.6,30.7,48.5,46.5,24.2,23.3,47.4,47.7,68.9,73.5,0,0-.4.4-.4.4-25.5-21.9-49.6-45.4-72.5-69.9-15.6-16.1-29.8-33.5-45.8-49.1-12-11.7-25.1-22.4-36.6-34.7-2.9-3-8.7-9.1-11.5-12.2-7.6-8.2-15.1-16.6-22.1-25.3l.4-.4h0Z"/>
              <path class="st51" d="M159.9,252.9c12.8,10.7,25.2,22.5,37,34.2,12.1,11.7,22.6,24.8,34.2,37,15.4,16.3,32.6,30.7,48.5,46.5,24.2,23.3,47.4,47.7,68.9,73.5,0,0-.4.4-.4.4-25.5-21.9-49.6-45.4-72.5-69.9-15.6-16.1-29.8-33.5-45.8-49.1-12-11.7-25.1-22.4-36.6-34.7-2.9-3-8.7-9.1-11.5-12.2-7.6-8.2-15.1-16.6-22.1-25.3,0,0,.4-.4.4-.4h0Z"/>
              <path class="st51" d="M171.5,252.9c12.8,10.7,25.2,22.5,37,34.2,12.1,11.7,22.6,24.8,34.2,37,15.4,16.3,32.6,30.7,48.5,46.5,24.2,23.3,47.4,47.7,68.9,73.5,0,0-.4.4-.4.4-25.5-21.9-49.6-45.4-72.5-69.9-15.6-16.1-29.8-33.5-45.8-49.1-12-11.7-25.1-22.4-36.6-34.7-2.9-3-8.7-9.1-11.5-12.2-7.6-8.2-15.1-16.6-22.1-25.3,0,0,.4-.4.4-.4h0Z"/>
              <path class="st51" d="M183.1,252.9c12.8,10.7,25.2,22.5,37,34.2,12.1,11.7,22.6,24.8,34.2,37,15.4,16.3,32.6,30.7,48.5,46.5,24.2,23.3,47.4,47.7,68.9,73.5,0,0-.4.4-.4.4-25.5-21.9-49.6-45.4-72.5-69.9-15.6-16.1-29.8-33.5-45.8-49.1-12-11.7-25.1-22.4-36.6-34.7-2.9-3-8.7-9.1-11.5-12.2-7.6-8.2-15.1-16.6-22.1-25.3,0,0,.4-.4.4-.4h0Z"/>
              <path class="st51" d="M194.7,252.9c12.8,10.7,25.2,22.5,37,34.2,12.1,11.7,22.6,24.8,34.2,37,15.4,16.3,32.6,30.7,48.5,46.5,24.2,23.3,47.4,47.7,68.9,73.5,0,0-.4.4-.4.4-25.5-21.9-49.6-45.4-72.5-69.9-15.6-16.1-29.8-33.5-45.8-49.1-12-11.7-25.1-22.4-36.6-34.7-2.9-3-8.7-9.1-11.5-12.2-7.6-8.2-15.1-16.6-22.1-25.3,0,0,.4-.4.4-.4h0Z"/>
              <path class="st51" d="M206.3,252.9c12.8,10.7,25.2,22.5,37,34.2,12.1,11.7,22.6,24.8,34.2,37,15.4,16.3,32.6,30.7,48.5,46.5,24.2,23.3,47.4,47.7,68.9,73.5,0,0-.4.4-.4.4-25.5-21.9-49.6-45.4-72.5-69.9-15.6-16.1-29.8-33.5-45.8-49.1-12-11.7-25.1-22.4-36.6-34.7-2.9-3-8.7-9.1-11.5-12.2-7.6-8.2-15.1-16.6-22.1-25.3,0,0,.4-.4.4-.4h0Z"/>
              <path class="st51" d="M217.9,252.9c12.8,10.7,25.2,22.5,37,34.2,12.1,11.7,22.6,24.8,34.2,37,15.4,16.3,32.6,30.7,48.5,46.5,24.2,23.3,47.4,47.7,68.9,73.5,0,0-.4.4-.4.4-25.5-21.9-49.6-45.4-72.5-69.9-15.6-16.1-29.8-33.5-45.8-49.1-12-11.7-25.1-22.4-36.6-34.7-2.9-3-8.7-9.1-11.5-12.2-7.6-8.2-15.1-16.6-22.1-25.3l.4-.4h0Z"/>
              <path class="st51" d="M229.5,252.9c12.8,10.7,25.2,22.5,37,34.2,12.1,11.7,22.6,24.8,34.2,37,15.4,16.3,32.6,30.7,48.5,46.5,24.2,23.3,47.4,47.7,68.9,73.5,0,0-.4.4-.4.4-25.5-21.9-49.6-45.4-72.5-69.9-15.6-16.1-29.8-33.5-45.8-49.1-12-11.7-25.1-22.4-36.6-34.7-2.9-3-8.7-9.1-11.5-12.2-7.6-8.2-15.1-16.6-22.1-25.3,0,0,.4-.4.4-.4h0Z"/>
            </g>
          </g>
        </g>
        <polygon id="area-hover-target6" data-name="area-hover-target" class="st28" points="176.8 258.1 232.4 258.1 232.4 419.8 68.6 419.8 59 414.9 19.7 320.5 58.4 311.4 152.6 273.4 176.8 258.1"/>
        <polygon id="border7" data-name="border" class="st3" points="176.8 258.1 232.4 258.1 232.4 419.8 68.6 419.8 59 414.9 19.7 320.5 58.4 311.4 152.6 273.4 176.8 258.1"/>
      </g>
    </g>
    <g id="nicaragua">
      <g id="vanessa">
        <g id="area-main7" data-name="area-main">
          <g id="area-main8" data-name="area-main">
            <rect class="st1" x="281.2" y="172.5" width="24.5" height="10.3"/>
            <rect class="st57" x="281.2" y="172.5" width="24.5" height="10.3"/>
          </g>
        </g>
        <g id="border8" data-name="border">
          <rect class="st18" x="281.2" y="172.5" width="24.5" height="10.3"/>
        </g>
        <g id="area-hover-target7" data-name="area-hover-target" class="st58">
          <rect class="st57" x="281.2" y="172.5" width="24.5" height="10.3"/>
        </g>
      </g>
      <g id="puerto-cabezas">
        <g id="area-main9" data-name="area-main">
          <g class="st44">
            <g>
              <circle class="st9" cx="275" cy="316.2" r="2.5"/>
              <circle class="st9" cx="280.1" cy="311.1" r="2.5"/>
              <circle class="st9" cx="285.1" cy="306.1" r="2.5"/>
              <circle class="st9" cx="290.1" cy="301" r="2.5"/>
              <circle class="st9" cx="295.2" cy="296" r="2.5"/>
              <circle class="st9" cx="300.2" cy="291" r="2.5"/>
              <circle class="st9" cx="305.3" cy="285.9" r="2.5"/>
              <circle class="st9" cx="310.3" cy="280.9" r="2.5"/>
              <circle class="st9" cx="315.3" cy="275.9" r="2.5"/>
              <circle class="st9" cx="320.4" cy="270.8" r="2.5"/>
              <circle class="st9" cx="325.4" cy="265.8" r="2.5"/>
              <circle class="st9" cx="286.2" cy="316.2" r="2.5"/>
              <circle class="st9" cx="291.3" cy="311.1" r="2.5"/>
              <circle class="st9" cx="296.3" cy="306.1" r="2.5"/>
              <circle class="st9" cx="301.3" cy="301" r="2.5"/>
              <circle class="st9" cx="306.4" cy="296" r="2.5"/>
              <circle class="st9" cx="311.4" cy="291" r="2.5"/>
              <circle class="st9" cx="316.4" cy="285.9" r="2.5"/>
              <circle class="st9" cx="321.5" cy="280.9" r="2.5"/>
              <circle class="st9" cx="326.5" cy="275.9" r="2.5"/>
              <circle class="st9" cx="331.6" cy="270.8" r="2.5"/>
              <circle class="st9" cx="336.6" cy="265.8" r="2.5"/>
              <circle class="st9" cx="297.4" cy="316.2" r="2.5"/>
              <circle class="st9" cx="302.4" cy="311.1" r="2.5"/>
              <circle class="st9" cx="307.5" cy="306.1" r="2.5"/>
              <circle class="st9" cx="312.5" cy="301" r="2.5"/>
              <circle class="st9" cx="317.6" cy="296" r="2.5"/>
              <circle class="st9" cx="322.6" cy="291" r="2.5"/>
              <circle class="st9" cx="327.6" cy="285.9" r="2.5"/>
              <circle class="st9" cx="332.7" cy="280.9" r="2.5"/>
              <circle class="st9" cx="337.7" cy="275.9" r="2.5"/>
              <circle class="st9" cx="342.8" cy="270.8" r="2.5"/>
              <circle class="st9" cx="347.8" cy="265.8" r="2.5"/>
              <circle class="st9" cx="308.7" cy="316.2" r="2.5"/>
              <circle class="st9" cx="313.7" cy="311.1" r="2.5"/>
              <circle class="st9" cx="318.7" cy="306.1" r="2.5"/>
              <circle class="st9" cx="323.8" cy="301" r="2.5"/>
              <circle class="st9" cx="328.8" cy="296" r="2.5"/>
              <circle class="st9" cx="333.8" cy="291" r="2.5"/>
              <circle class="st9" cx="338.9" cy="285.9" r="2.5"/>
              <circle class="st9" cx="343.9" cy="280.9" r="2.5"/>
              <circle class="st9" cx="349" cy="275.9" r="2.5"/>
              <circle class="st9" cx="354" cy="270.8" r="2.5"/>
              <circle class="st9" cx="359" cy="265.8" r="2.5"/>
              <circle class="st9" cx="319.8" cy="316.2" r="2.5"/>
              <circle class="st9" cx="324.9" cy="311.1" r="2.5"/>
              <circle class="st9" cx="329.9" cy="306.1" r="2.5"/>
              <circle class="st9" cx="335" cy="301" r="2.5"/>
              <circle class="st9" cx="340" cy="296" r="2.5"/>
              <circle class="st9" cx="345" cy="291" r="2.5"/>
              <circle class="st9" cx="350.1" cy="285.9" r="2.5"/>
              <circle class="st9" cx="355.1" cy="280.9" r="2.5"/>
              <circle class="st9" cx="360.2" cy="275.9" r="2.5"/>
              <circle class="st9" cx="365.2" cy="270.8" r="2.5"/>
              <circle class="st9" cx="370.2" cy="265.8" r="2.5"/>
              <circle class="st9" cx="331" cy="316.2" r="2.5"/>
              <circle class="st9" cx="336.1" cy="311.1" r="2.5"/>
              <circle class="st9" cx="341.1" cy="306.1" r="2.5"/>
              <circle class="st9" cx="346.1" cy="301" r="2.5"/>
              <circle class="st9" cx="351.2" cy="296" r="2.5"/>
              <circle class="st9" cx="356.2" cy="291" r="2.5"/>
              <circle class="st9" cx="361.3" cy="285.9" r="2.5"/>
              <circle class="st9" cx="366.3" cy="280.9" r="2.5"/>
              <circle class="st9" cx="371.3" cy="275.9" r="2.5"/>
              <circle class="st9" cx="376.4" cy="270.8" r="2.5"/>
              <circle class="st9" cx="381.4" cy="265.8" r="2.5"/>
            </g>
          </g>
        </g>
        <polygon id="area-hover-target8" data-name="area-hover-target" class="st32" points="303.4 299.2 352.4 299.2 352.4 288.2 333.1 288.2 333.1 285 325 285 325 282.2 314.5 282.2 314.5 279.1 303.8 279.1 303.4 299.2"/>
        <polygon id="border9" data-name="border" class="st15" points="303.4 299.2 352.4 299.2 352.4 288.2 333.1 288.2 333.1 285 325 285 325 282.2 314.5 282.2 314.5 279.1 303.8 279.1 303.4 299.2"/>
      </g>
    </g>
  </g>
  <g id="paises">
    <g id="pais-reserva">
      <g id="bandera">
        <g class="st43">
          <g>
            <rect class="st21" x="19" y="172.4" width="64.5" height="26.5"/>
            <rect class="st33" x="19" y="198.4" width="64.5" height="13.9"/>
            <rect class="st21" x="19" y="212.2" width="64.5" height="13.9"/>
          </g>
        </g>
        <g id="border10" data-name="border">
          <circle class="st4" cx="52" cy="205.4" r="21.6"/>
        </g>
      </g>
      <g id="label">
        <text class="st63" transform="translate(83.8 211.4)"><tspan x="0" y="0">Reserva Minera</tspan></text>
      </g>
    </g>
    <g id="pais-colombia">
      <g id="bandera1" data-name="bandera">
        <g class="st46">
          <g>
            <rect class="st55" x="17.6" y="226.7" width="65.5" height="26.9"/>
            <rect class="st59" x="17.6" y="253.1" width="65.5" height="14.1"/>
            <rect class="st49" x="17.6" y="267.1" width="65.5" height="14.1"/>
          </g>
        </g>
        <g id="border11" data-name="border">
          <circle class="st13" cx="51.1" cy="257" r="21.6"/>
        </g>
      </g>
      <g id="label1" data-name="label">
        <text class="st63" transform="translate(83.8 263.2)"><tspan x="0" y="0">Colombia</tspan></text>
      </g>
    </g>
    <g id="pais-nicaragua">
      <g id="label2" data-name="label">
        <text class="st63" transform="translate(83.8 159)"><tspan x="0" y="0">Nicaragua</tspan></text>
      </g>
      <g id="bandera2" data-name="bandera">
        <g class="st45">
          <g>
            <rect class="st56" x="19.1" y="121.2" width="64.7" height="26.6"/>
            <rect class="st29" x="19.1" y="147.3" width="64.7" height="13.9"/>
            <rect class="st56" x="19.1" y="161.1" width="64.7" height="13.9"/>
          </g>
          <polygon class="st56" points="59.3 159.3 52 159.3 44.8 159.3 48.4 153 52 146.7 55.7 153 59.3 159.3"/>
          <rect class="st60" x="49.8" y="150.8" width="4.3" height="4.3" rx="2.1" ry="2.1"/>
        </g>
        <g id="border12" data-name="border">
          <circle class="st16" cx="52.4" cy="153.9" r="21.6"/>
        </g>
      </g>
    </g>
    <g id="pais-canada">
      <g id="bandera3" data-name="bandera">
        <g class="st36">
          <g id="lhAU0U">
            <g>
              <path class="st29" d="M64.3,78.7v50.1c0,0-24.6,0-24.6,0v-50.1s24.6,0,24.6,0Z"/>
              <polygon class="st26" points="39.8 78.7 39.8 128.7 27.5 128.7 27.5 78.7 39.8 78.7"/>
              <polygon class="st26" points="64.3 78.7 76.5 78.7 76.5 128.7 64.3 128.7 64.3 78.7"/>
              <path class="st26" d="M52.3,111.3c-.2,0-.5,0-.6,0v-3.6c0-.1-.1-.3-.2-.4l-3.5.4.4-1.4-3.8-3.2,1-.4-.7-2.7,2,.5c0,0,.3,0,.4-.1l.3-1,1.9,2.1h.3c0,0,0-.2,0-.2l-.7-4.2,1.1.6c0,0,.4,0,.4,0l1.4-2.6,1.4,2.6c0,.1.4,0,.5,0l1-.6-.7,4.2c0,0,0,.3,0,.3h.3s1.9-2.1,1.9-2.1l.3.9c0,.1.2.3.4.2l2.1-.5-.7,2.7,1,.5-3.8,3.2.4,1.4-3.5-.4c-.3,0-.4.4-.3.6v3.4Z"/>
            </g>
          </g>
        </g>
        <g id="border13" data-name="border">
          <circle class="st14" cx="52" cy="102.9" r="21.6"/>
        </g>
      </g>
      <g id="label3" data-name="label">
        <text class="st63" transform="translate(83.8 110.5)"><tspan x="0" y="0">Canada</tspan></text>
      </g>
    </g>
    <g id="pais-china">
      <g id="bandera4" data-name="bandera">
        <circle class="st54" cx="52.4" cy="49.1" r="18.5"/>
        <polygon class="st48" points="46.7 50.7 42.6 53.6 44.1 48.9 40.2 46 45.1 45.9 46.7 41.3 48.2 45.9 53.1 46 49.2 48.9 50.7 53.6 46.7 50.7"/>
        <polygon class="st48" points="57.9 58.2 56.3 58.5 57.3 57.2 56.5 56 58 56.4 59 55.2 59 56.8 60.4 57.4 58.9 57.9 58.8 59.5 57.9 58.2"/>
        <polygon class="st48" points="62.9 53.6 61.6 54.5 62 52.9 60.7 52.1 62.3 51.9 62.7 50.5 63.3 51.9 64.9 51.9 63.7 52.9 64.1 54.4 62.9 53.6"/>
        <path class="st48" d="M57.9,42l-1.5.2.9-1.1-.7-1.3,1.4.5,1-1.1c0,.5-.1,1.3,0,1.5s.7.4,1.2.6l-1.4.4-.2,1.6-.8-1.3Z"/>
        <polygon class="st48" points="63.2 46.6 62.5 47.9 62.1 46.4 60.7 46.1 62 45.3 62 43.9 62.9 44.9 64.4 44.3 63.7 45.6 64.7 46.8 63.2 46.6"/>
        <circle class="st62" cx="-117.6" cy="-89.7" r="37.3"/>
      </g>
      <g id="label4" data-name="label">
        <text class="st63" transform="translate(83.8 53)"><tspan x="0" y="0">China</tspan></text>
      </g>
      <g id="border14" data-name="border">
        <circle class="st17" cx="52.5" cy="49.1" r="21.6"/>
      </g>
    </g>
  </g>
  <g id="MAPA_x5F_MASTER_x5F_DESKTOP">
    <g>
      <path id="norte1" data-name="norte" class="st53" d="M445.2,56.2l20.4,18.3-23.7-58.8h0c0-.1,0,0,0,0h0c0,0,0,0,0,0l-23.7,58.8,20.4-18.3c1.9-1.7,4.8-1.7,6.7,0Z"/>
      <g id="poblados">
        <polygon id="poblado-el-lanchon" class="st22" points="441.9 162.5 433.2 180 451.1 180 441.9 162.5"/>
        <polygon id="poblado-sukapin" class="st22" points="271.4 304.6 262.6 322.1 280.6 322.1 271.4 304.6"/>
        <polygon id="poblado-cuarenta-y-tres" class="st22" points="332.6 165.9 323.8 183.5 341.7 183.5 332.6 165.9"/>
        <polygon id="poblado-mani-watla" class="st22" points="334.3 181.1 325.6 198.6 343.5 198.6 334.3 181.1"/>
        <polygon id="poblado-kligna" class="st22" points="347.7 331.4 339 348.9 356.9 348.9 347.7 331.4"/>
        <polygon id="poblado-lapan" class="st23" points="197.4 428.7 188.6 446.3 206.6 446.3 197.4 428.7"/>
        <polygon id="poblado-yulu" class="st22" points="387.4 216.6 378.6 234.1 396.5 234.1 387.4 216.6"/>
        <g id="titulo-Lapan">
          <g>
            <path class="st10" d="M207.4,419.2h1.9v6.5h3.4v1.4h-5.3v-7.9Z"/>
            <path class="st10" d="M214,424c.5-.3,1.1-.5,1.9-.5h1.1v-.3c0-.2,0-.4-.2-.6s-.3-.2-.6-.2-.5,0-.6.2-.2.3-.2.4h0c0,.1-1.8.1-1.8.1h0c0-.6.3-1.1.8-1.4.5-.3,1.2-.5,1.9-.5s1.4.2,1.9.5.7.8.7,1.5v2.7c0,.2,0,.5,0,.7,0,.2.1.4.2.5h0c0,0-1.8,0-1.8,0,0,0,0-.2-.1-.3,0-.1,0-.3,0-.4,0,.2-.3.4-.6.6s-.7.2-1.2.2-1-.1-1.4-.4c-.4-.3-.6-.7-.6-1.4s.3-1.2.8-1.5ZM215.3,425.8c.1.1.3.2.6.2s.6,0,.8-.3.3-.4.3-.7v-.5h-.8c-.4,0-.7,0-.8.2-.2.1-.3.3-.3.5s0,.4.2.6Z"/>
            <path class="st10" d="M220.2,421.4h1.7v.6h0c.1-.2.3-.4.6-.5.3-.1.6-.2,1-.2.7,0,1.3.3,1.8.8s.7,1.2.7,2.1v.2c0,.9-.2,1.6-.7,2.1-.4.5-1,.8-1.8.8s-.7,0-1-.2c-.3-.1-.5-.3-.6-.5v2.8h-1.8v-8ZM222.4,425.7c.2.1.4.2.7.2s.6-.1.8-.4.3-.6.3-1.1v-.4c0-.5,0-.8-.3-1.1-.2-.2-.4-.4-.8-.4s-.5,0-.7.2c-.2.1-.3.3-.4.5v1.8c0,.2.2.4.4.5Z"/>
            <path class="st10" d="M227.6,424c.5-.3,1.1-.5,1.9-.5h1.1v-.3c0-.2,0-.4-.2-.6s-.3-.2-.6-.2-.5,0-.6.2-.2.3-.2.4h0c0,.1-1.8.1-1.8.1h0c0-.6.3-1.1.8-1.4.5-.3,1.2-.5,1.9-.5s1.4.2,1.9.5.7.8.7,1.5v2.7c0,.2,0,.5,0,.7,0,.2.1.4.2.5h0c0,0-1.8,0-1.8,0,0,0,0-.2-.1-.3,0-.1,0-.3,0-.4,0,.2-.3.4-.6.6s-.7.2-1.2.2-1-.1-1.4-.4c-.4-.3-.6-.7-.6-1.4s.3-1.2.8-1.5ZM228.8,425.8c.1.1.3.2.6.2s.6,0,.8-.3.3-.4.3-.7v-.5h-.8c-.4,0-.7,0-.8.2-.2.1-.3.3-.3.5s0,.4.2.6Z"/>
            <path class="st10" d="M233.7,421.4h1.7v.6h0c.1-.2.3-.4.6-.5.3-.1.6-.2,1-.2.6,0,1.1.2,1.5.5.4.3.6.9.6,1.8v3.6h-1.8v-3.6c0-.3,0-.5-.2-.7s-.3-.2-.6-.2-.4,0-.6.2c-.2.1-.3.3-.4.5v3.8h-1.8v-5.8Z"/>
          </g>
          <g>
            <path d="M207.4,419.2h1.9v6.5h3.4v1.4h-5.3v-7.9Z"/>
            <path d="M214,424c.5-.3,1.1-.5,1.9-.5h1.1v-.3c0-.2,0-.4-.2-.6s-.3-.2-.6-.2-.5,0-.6.2-.2.3-.2.4h0c0,.1-1.8.1-1.8.1h0c0-.6.3-1.1.8-1.4.5-.3,1.2-.5,1.9-.5s1.4.2,1.9.5.7.8.7,1.5v2.7c0,.2,0,.5,0,.7,0,.2.1.4.2.5h0c0,0-1.8,0-1.8,0,0,0,0-.2-.1-.3,0-.1,0-.3,0-.4,0,.2-.3.4-.6.6s-.7.2-1.2.2-1-.1-1.4-.4c-.4-.3-.6-.7-.6-1.4s.3-1.2.8-1.5ZM215.3,425.8c.1.1.3.2.6.2s.6,0,.8-.3.3-.4.3-.7v-.5h-.8c-.4,0-.7,0-.8.2-.2.1-.3.3-.3.5s0,.4.2.6Z"/>
            <path d="M220.2,421.4h1.7v.6h0c.1-.2.3-.4.6-.5.3-.1.6-.2,1-.2.7,0,1.3.3,1.8.8s.7,1.2.7,2.1v.2c0,.9-.2,1.6-.7,2.1-.4.5-1,.8-1.8.8s-.7,0-1-.2c-.3-.1-.5-.3-.6-.5v2.8h-1.8v-8ZM222.4,425.7c.2.1.4.2.7.2s.6-.1.8-.4.3-.6.3-1.1v-.4c0-.5,0-.8-.3-1.1-.2-.2-.4-.4-.8-.4s-.5,0-.7.2c-.2.1-.3.3-.4.5v1.8c0,.2.2.4.4.5Z"/>
            <path d="M227.6,424c.5-.3,1.1-.5,1.9-.5h1.1v-.3c0-.2,0-.4-.2-.6s-.3-.2-.6-.2-.5,0-.6.2-.2.3-.2.4h0c0,.1-1.8.1-1.8.1h0c0-.6.3-1.1.8-1.4.5-.3,1.2-.5,1.9-.5s1.4.2,1.9.5.7.8.7,1.5v2.7c0,.2,0,.5,0,.7,0,.2.1.4.2.5h0c0,0-1.8,0-1.8,0,0,0,0-.2-.1-.3,0-.1,0-.3,0-.4,0,.2-.3.4-.6.6s-.7.2-1.2.2-1-.1-1.4-.4c-.4-.3-.6-.7-.6-1.4s.3-1.2.8-1.5ZM228.8,425.8c.1.1.3.2.6.2s.6,0,.8-.3.3-.4.3-.7v-.5h-.8c-.4,0-.7,0-.8.2-.2.1-.3.3-.3.5s0,.4.2.6Z"/>
            <path d="M233.7,421.4h1.7v.6h0c.1-.2.3-.4.6-.5.3-.1.6-.2,1-.2.6,0,1.1.2,1.5.5.4.3.6.9.6,1.8v3.6h-1.8v-3.6c0-.3,0-.5-.2-.7s-.3-.2-.6-.2-.4,0-.6.2c-.2.1-.3.3-.4.5v3.8h-1.8v-5.8Z"/>
          </g>
        </g>
        <g id="titulo-Kligna">
          <g>
            <path class="st10" d="M331.6,352.9h1.9v3.1l2.7-3.1h2l-4.7,5.2v2.7h-1.9v-7.9ZM333.7,357.1l1.2-1.4,3.8,5.1h-2.3l-2.7-3.7Z"/>
            <path class="st10" d="M339.1,352.5h1.8v8.3h-1.8v-8.3Z"/>
            <path class="st10" d="M342.4,352.8c.2-.2.4-.3.8-.3s.6,0,.8.3.3.4.3.7,0,.5-.3.7c-.2.2-.4.3-.8.3s-.6,0-.8-.3c-.2-.2-.3-.4-.3-.7s0-.5.3-.7ZM342.3,355.1h1.8v5.8h-1.8v-5.8Z"/>
            <path class="st10" d="M346.3,361.3c.1.1.3.2.6.4.3.1.6.2,1,.2s.7-.1.9-.4c.2-.2.4-.6.4-1.1v-.2c-.1.2-.3.4-.6.5s-.6.2-.9.2c-.7,0-1.3-.3-1.8-.8s-.7-1.2-.7-2.1v-.2c0-.9.2-1.6.7-2.1s1.1-.8,1.8-.8.7,0,.9.2c.3.1.5.3.6.5h0v-.6h1.8v5.3c0,.9-.3,1.6-.9,2.1-.6.5-1.3.7-2.1.7s-1,0-1.4-.2c-.4-.2-.8-.3-1.1-.6l.7-1.1ZM347.3,359.2c.2.3.5.4.9.4s.5,0,.6-.2c.2-.1.3-.3.4-.5v-1.8c0-.2-.2-.4-.4-.6-.2-.1-.4-.2-.7-.2-.4,0-.6.1-.8.4s-.3.6-.3,1.1v.4c0,.4,0,.8.3,1Z"/>
            <path class="st10" d="M352.3,355.1h1.7v.6h0c.1-.2.3-.4.6-.5.3-.1.6-.2,1-.2.6,0,1.1.2,1.5.5.4.3.6.9.6,1.8v3.6h-1.8v-3.6c0-.3,0-.5-.2-.7s-.3-.2-.6-.2-.4,0-.6.2c-.2.1-.3.3-.4.5v3.8h-1.8v-5.8Z"/>
            <path class="st10" d="M359.5,357.6c.5-.3,1.1-.5,1.9-.5h1.1v-.3c0-.2,0-.4-.2-.6s-.3-.2-.6-.2-.5,0-.6.2-.2.3-.2.4h0c0,.1-1.8.1-1.8.1h0c0-.6.3-1.1.8-1.4.5-.3,1.2-.5,1.9-.5s1.4.2,1.9.5.7.8.7,1.5v2.7c0,.2,0,.5,0,.7,0,.2.1.4.2.5h0c0,0-1.8,0-1.8,0,0,0,0-.2-.1-.3,0-.1,0-.3,0-.4,0,.2-.3.4-.6.6s-.7.2-1.2.2-1-.1-1.4-.4c-.4-.3-.6-.7-.6-1.4s.3-1.2.8-1.5ZM360.8,359.5c.1.1.3.2.6.2s.6,0,.8-.3.3-.4.3-.7v-.5h-.8c-.4,0-.7,0-.8.2-.2.1-.3.3-.3.5s0,.4.2.6Z"/>
          </g>
          <g>
            <path d="M331.6,352.9h1.9v3.1l2.7-3.1h2l-4.7,5.2v2.7h-1.9v-7.9ZM333.7,357.1l1.2-1.4,3.8,5.1h-2.3l-2.7-3.7Z"/>
            <path d="M339.1,352.5h1.8v8.3h-1.8v-8.3Z"/>
            <path d="M342.4,352.8c.2-.2.4-.3.8-.3s.6,0,.8.3.3.4.3.7,0,.5-.3.7c-.2.2-.4.3-.8.3s-.6,0-.8-.3c-.2-.2-.3-.4-.3-.7s0-.5.3-.7ZM342.3,355.1h1.8v5.8h-1.8v-5.8Z"/>
            <path d="M346.3,361.3c.1.1.3.2.6.4.3.1.6.2,1,.2s.7-.1.9-.4c.2-.2.4-.6.4-1.1v-.2c-.1.2-.3.4-.6.5s-.6.2-.9.2c-.7,0-1.3-.3-1.8-.8s-.7-1.2-.7-2.1v-.2c0-.9.2-1.6.7-2.1s1.1-.8,1.8-.8.7,0,.9.2c.3.1.5.3.6.5h0v-.6h1.8v5.3c0,.9-.3,1.6-.9,2.1-.6.5-1.3.7-2.1.7s-1,0-1.4-.2c-.4-.2-.8-.3-1.1-.6l.7-1.1ZM347.3,359.2c.2.3.5.4.9.4s.5,0,.6-.2c.2-.1.3-.3.4-.5v-1.8c0-.2-.2-.4-.4-.6-.2-.1-.4-.2-.7-.2-.4,0-.6.1-.8.4s-.3.6-.3,1.1v.4c0,.4,0,.8.3,1Z"/>
            <path d="M352.3,355.1h1.7v.6h0c.1-.2.3-.4.6-.5.3-.1.6-.2,1-.2.6,0,1.1.2,1.5.5.4.3.6.9.6,1.8v3.6h-1.8v-3.6c0-.3,0-.5-.2-.7s-.3-.2-.6-.2-.4,0-.6.2c-.2.1-.3.3-.4.5v3.8h-1.8v-5.8Z"/>
            <path d="M359.5,357.6c.5-.3,1.1-.5,1.9-.5h1.1v-.3c0-.2,0-.4-.2-.6s-.3-.2-.6-.2-.5,0-.6.2-.2.3-.2.4h0c0,.1-1.8.1-1.8.1h0c0-.6.3-1.1.8-1.4.5-.3,1.2-.5,1.9-.5s1.4.2,1.9.5.7.8.7,1.5v2.7c0,.2,0,.5,0,.7,0,.2.1.4.2.5h0c0,0-1.8,0-1.8,0,0,0,0-.2-.1-.3,0-.1,0-.3,0-.4,0,.2-.3.4-.6.6s-.7.2-1.2.2-1-.1-1.4-.4c-.4-.3-.6-.7-.6-1.4s.3-1.2.8-1.5ZM360.8,359.5c.1.1.3.2.6.2s.6,0,.8-.3.3-.4.3-.7v-.5h-.8c-.4,0-.7,0-.8.2-.2.1-.3.3-.3.5s0,.4.2.6Z"/>
          </g>
        </g>
        <g id="titulo-SukatPin">
          <g>
            <path class="st10" d="M249.7,331.3h1.9c0,.5.1.8.3.9.2.2.5.3,1,.3s.7,0,.9-.2c.2-.2.3-.4.3-.6s-.1-.5-.3-.7c-.2-.2-.7-.3-1.4-.5-.8-.2-1.5-.5-1.9-.9s-.7-.9-.7-1.6.3-1.3.8-1.7c.6-.4,1.3-.6,2.2-.6s1.7.2,2.2.6c.6.4.8,1,.8,1.8v.2h-1.9c0-.4,0-.7-.3-.9-.2-.2-.5-.3-.9-.3s-.7,0-.9.2-.3.3-.3.6.1.4.3.6c.2.1.7.3,1.4.5.8.2,1.4.5,1.9.9.5.4.7,1,.7,1.7,0,.8-.3,1.4-.9,1.8s-1.4.6-2.3.6-1.7-.2-2.3-.6c-.6-.4-.9-1-.9-1.8v-.2Z"/>
            <path class="st10" d="M257,328h1.8v3.5c0,.4,0,.6.2.8.1.1.3.2.6.2s.4,0,.6-.2c.2-.1.3-.3.4-.5v-3.8h1.8v5.8h-1.7v-.6h0c-.2.2-.4.4-.7.5-.3.1-.6.2-1,.2-.6,0-1-.2-1.4-.6-.4-.4-.6-1-.6-1.9v-3.5Z"/>
            <path class="st10" d="M263.8,325.4h1.8v4.4l1.7-1.9h2l-3.7,4v1.8h-1.8v-8.3ZM265.5,331.2l1.2-1.3,2.9,3.9h-2.1l-1.9-2.6Z"/>
            <path class="st10" d="M270.6,330.6c.5-.3,1.1-.5,1.9-.5h1.1v-.3c0-.2,0-.4-.2-.6s-.3-.2-.6-.2-.5,0-.6.2-.2.3-.2.4h0c0,.1-1.8.1-1.8.1h0c0-.6.3-1.1.8-1.4.5-.3,1.2-.5,1.9-.5s1.4.2,1.9.5.7.8.7,1.5v2.7c0,.2,0,.5,0,.7,0,.2.1.4.2.5h0c0,0-1.8,0-1.8,0,0,0,0-.2-.1-.3,0-.1,0-.3,0-.4,0,.2-.3.4-.6.6s-.7.2-1.2.2-1-.1-1.4-.4c-.4-.3-.6-.7-.6-1.4s.3-1.2.8-1.5ZM271.8,332.5c.1.1.3.2.6.2s.6,0,.8-.3.3-.4.3-.7v-.5h-.8c-.4,0-.7,0-.8.2-.2.1-.3.3-.3.5s0,.4.2.6Z"/>
            <path class="st10" d="M276.1,328h3.6v1.3h-3.6v-1.3ZM276.9,328.7v-.2s0-1.8,0-1.8h1.8v5.2c0,.3,0,.4.1.5,0,0,.2.1.4.1s.2,0,.2,0,.2,0,.2,0v1.3c0,0-.2,0-.4.1-.2,0-.3,0-.5,0-.6,0-1.1-.2-1.4-.5-.4-.3-.5-.8-.5-1.5v-3.3Z"/>
            <path class="st10" d="M280.7,325.8h3.2c.9,0,1.7.2,2.2.7s.8,1.1.8,1.9-.3,1.5-.8,2c-.5.5-1.2.7-2.2.7h-1.3v2.7h-1.9v-7.9ZM283.7,329.7c.5,0,.8-.1,1-.3.2-.2.3-.5.3-.9s0-.7-.3-.9-.5-.3-1-.3h-1.1v2.5h1.1Z"/>
            <path class="st10" d="M287.9,325.8c.2-.2.4-.3.8-.3s.6,0,.8.3.3.4.3.7,0,.5-.3.7c-.2.2-.4.3-.8.3s-.6,0-.8-.3c-.2-.2-.3-.4-.3-.7s0-.5.3-.7ZM287.7,328h1.8v5.8h-1.8v-5.8Z"/>
            <path class="st10" d="M290.9,328h1.7v.6h0c.1-.2.3-.4.6-.5.3-.1.6-.2,1-.2.6,0,1.1.2,1.5.5.4.3.6.9.6,1.8v3.6h-1.8v-3.6c0-.3,0-.5-.2-.7s-.3-.2-.6-.2-.4,0-.6.2c-.2.1-.3.3-.4.5v3.8h-1.8v-5.8Z"/>
          </g>
          <g>
            <path d="M249.7,331.3h1.9c0,.5.1.8.3.9.2.2.5.3,1,.3s.7,0,.9-.2c.2-.2.3-.4.3-.6s-.1-.5-.3-.7c-.2-.2-.7-.3-1.4-.5-.8-.2-1.5-.5-1.9-.9s-.7-.9-.7-1.6.3-1.3.8-1.7c.6-.4,1.3-.6,2.2-.6s1.7.2,2.2.6c.6.4.8,1,.8,1.8v.2h-1.9c0-.4,0-.7-.3-.9-.2-.2-.5-.3-.9-.3s-.7,0-.9.2-.3.3-.3.6.1.4.3.6c.2.1.7.3,1.4.5.8.2,1.4.5,1.9.9.5.4.7,1,.7,1.7,0,.8-.3,1.4-.9,1.8s-1.4.6-2.3.6-1.7-.2-2.3-.6c-.6-.4-.9-1-.9-1.8v-.2Z"/>
            <path d="M257,328h1.8v3.5c0,.4,0,.6.2.8.1.1.3.2.6.2s.4,0,.6-.2c.2-.1.3-.3.4-.5v-3.8h1.8v5.8h-1.7v-.6h0c-.2.2-.4.4-.7.5-.3.1-.6.2-1,.2-.6,0-1-.2-1.4-.6-.4-.4-.6-1-.6-1.9v-3.5Z"/>
            <path d="M263.8,325.4h1.8v4.4l1.7-1.9h2l-3.7,4v1.8h-1.8v-8.3ZM265.5,331.2l1.2-1.3,2.9,3.9h-2.1l-1.9-2.6Z"/>
            <path d="M270.6,330.6c.5-.3,1.1-.5,1.9-.5h1.1v-.3c0-.2,0-.4-.2-.6s-.3-.2-.6-.2-.5,0-.6.2-.2.3-.2.4h0c0,.1-1.8.1-1.8.1h0c0-.6.3-1.1.8-1.4.5-.3,1.2-.5,1.9-.5s1.4.2,1.9.5.7.8.7,1.5v2.7c0,.2,0,.5,0,.7,0,.2.1.4.2.5h0c0,0-1.8,0-1.8,0,0,0,0-.2-.1-.3,0-.1,0-.3,0-.4,0,.2-.3.4-.6.6s-.7.2-1.2.2-1-.1-1.4-.4c-.4-.3-.6-.7-.6-1.4s.3-1.2.8-1.5ZM271.8,332.5c.1.1.3.2.6.2s.6,0,.8-.3.3-.4.3-.7v-.5h-.8c-.4,0-.7,0-.8.2-.2.1-.3.3-.3.5s0,.4.2.6Z"/>
            <path d="M276.1,328h3.6v1.3h-3.6v-1.3ZM276.9,328.7v-.2s0-1.8,0-1.8h1.8v5.2c0,.3,0,.4.1.5,0,0,.2.1.4.1s.2,0,.2,0,.2,0,.2,0v1.3c0,0-.2,0-.4.1-.2,0-.3,0-.5,0-.6,0-1.1-.2-1.4-.5-.4-.3-.5-.8-.5-1.5v-3.3Z"/>
            <path d="M280.7,325.8h3.2c.9,0,1.7.2,2.2.7s.8,1.1.8,1.9-.3,1.5-.8,2c-.5.5-1.2.7-2.2.7h-1.3v2.7h-1.9v-7.9ZM283.7,329.7c.5,0,.8-.1,1-.3.2-.2.3-.5.3-.9s0-.7-.3-.9-.5-.3-1-.3h-1.1v2.5h1.1Z"/>
            <path d="M287.9,325.8c.2-.2.4-.3.8-.3s.6,0,.8.3.3.4.3.7,0,.5-.3.7c-.2.2-.4.3-.8.3s-.6,0-.8-.3c-.2-.2-.3-.4-.3-.7s0-.5.3-.7ZM287.7,328h1.8v5.8h-1.8v-5.8Z"/>
            <path d="M290.9,328h1.7v.6h0c.1-.2.3-.4.6-.5.3-.1.6-.2,1-.2.6,0,1.1.2,1.5.5.4.3.6.9.6,1.8v3.6h-1.8v-3.6c0-.3,0-.5-.2-.7s-.3-.2-.6-.2-.4,0-.6.2c-.2.1-.3.3-.4.5v3.8h-1.8v-5.8Z"/>
          </g>
        </g>
        <g id="titulo-Yulu">
          <g>
            <path class="st10" d="M379.3,244.1l-2.8-5.2h2.1l1.5,2.8c0,.1,0,.2.1.3,0,0,0,.2.1.3h0c0-.1,0-.2.1-.3s0-.2.1-.3l1.5-2.8h1.8l-2.7,5.1v2.9h-1.9v-2.8Z"/>
            <path class="st10" d="M384.4,241.1h1.8v3.5c0,.4,0,.6.2.8.1.1.3.2.6.2s.4,0,.6-.2c.2-.1.3-.3.4-.5v-3.8h1.8v5.8h-1.7v-.6h0c-.2.2-.4.4-.7.5-.3.1-.6.2-1,.2-.6,0-1-.2-1.4-.6-.4-.4-.6-1-.6-1.9v-3.5Z"/>
            <path class="st10" d="M391.2,238.5h1.8v8.3h-1.8v-8.3Z"/>
            <path class="st10" d="M394.3,241.1h1.8v3.5c0,.4,0,.6.2.8.1.1.3.2.6.2s.4,0,.6-.2c.2-.1.3-.3.4-.5v-3.8h1.8v5.8h-1.7v-.6h0c-.2.2-.4.4-.7.5-.3.1-.6.2-1,.2-.6,0-1-.2-1.4-.6-.4-.4-.6-1-.6-1.9v-3.5Z"/>
          </g>
          <g>
            <path d="M379.3,244.1l-2.8-5.2h2.1l1.5,2.8c0,.1,0,.2.1.3,0,0,0,.2.1.3h0c0-.1,0-.2.1-.3s0-.2.1-.3l1.5-2.8h1.8l-2.7,5.1v2.9h-1.9v-2.8Z"/>
            <path d="M384.4,241.1h1.8v3.5c0,.4,0,.6.2.8.1.1.3.2.6.2s.4,0,.6-.2c.2-.1.3-.3.4-.5v-3.8h1.8v5.8h-1.7v-.6h0c-.2.2-.4.4-.7.5-.3.1-.6.2-1,.2-.6,0-1-.2-1.4-.6-.4-.4-.6-1-.6-1.9v-3.5Z"/>
            <path d="M391.2,238.5h1.8v8.3h-1.8v-8.3Z"/>
            <path d="M394.3,241.1h1.8v3.5c0,.4,0,.6.2.8.1.1.3.2.6.2s.4,0,.6-.2c.2-.1.3-.3.4-.5v-3.8h1.8v5.8h-1.7v-.6h0c-.2.2-.4.4-.7.5-.3.1-.6.2-1,.2-.6,0-1-.2-1.4-.6-.4-.4-.6-1-.6-1.9v-3.5Z"/>
          </g>
        </g>
        <g id="titulo-Mani-Wátla">
          <g>
            <path class="st10" d="M347.7,190.4h2.4l1.7,4.9c0,.1,0,.2.1.4,0,.1,0,.2,0,.4h0c0-.1,0-.3,0-.4,0-.1,0-.2.1-.3l1.8-4.9h2.4v7.9h-1.9v-4.8c0-.1,0-.3,0-.4s0-.3,0-.4h0c0,.1,0,.3,0,.4s0,.3-.1.4l-1.7,4.8h-1.5l-1.7-4.8c0-.1,0-.3-.1-.4s0-.3,0-.4h0c0,.1,0,.3,0,.4s0,.3,0,.4v4.8h-1.5v-7.9Z"/>
            <path class="st10" d="M358.4,195.2c.5-.3,1.1-.5,1.9-.5h1.1v-.3c0-.2,0-.4-.2-.6-.1-.1-.3-.2-.6-.2s-.5,0-.6.2c-.1.1-.2.3-.2.4h0c0,.1-1.8.1-1.8.1h0c0-.6.3-1.1.8-1.4.5-.3,1.2-.5,1.9-.5s1.4.2,1.9.5c.5.3.7.8.7,1.5v2.7c0,.2,0,.4,0,.7,0,.2.1.4.2.5h0c0,0-1.8,0-1.8,0,0,0,0-.2-.1-.3,0-.1,0-.3,0-.4,0,.2-.3.4-.6.6s-.7.2-1.2.2-1-.1-1.4-.4c-.4-.3-.6-.7-.6-1.4s.3-1.2.8-1.5ZM359.7,197c.1.1.3.2.6.2s.6,0,.8-.3.3-.4.3-.7v-.5h-.8c-.4,0-.7,0-.8.2s-.3.3-.3.5,0,.4.2.6Z"/>
            <path class="st10" d="M364.6,192.6h1.7v.6h0c.1-.2.3-.4.6-.5.3-.1.6-.2,1-.2.6,0,1.1.2,1.5.5.4.3.6.9.6,1.8v3.6h-1.8v-3.6c0-.3,0-.5-.2-.7s-.3-.2-.6-.2-.4,0-.6.2c-.2.1-.3.3-.4.5v3.8h-1.8v-5.8Z"/>
            <path class="st10" d="M371.5,190.3c.2-.2.4-.3.8-.3s.6,0,.8.3.3.4.3.7,0,.5-.3.7-.4.3-.8.3-.6,0-.8-.3-.3-.4-.3-.7,0-.5.3-.7ZM371.4,192.6h1.8v5.8h-1.8v-5.8Z"/>
            <path class="st10" d="M376.7,190.4h1.9l1.1,5.2c0,.1,0,.2,0,.3,0,0,0,.2,0,.3h0c0-.1,0-.2,0-.3,0,0,0-.2,0-.3l1.2-5.2h2.1l1.2,5.2c0,.1,0,.2,0,.3s0,.2,0,.3h0c0-.1,0-.2,0-.3s0-.2,0-.3l1.1-5.2h1.6l-1.8,8h-2.1l-1.3-5.2c0-.1,0-.2,0-.3s0-.2,0-.3h0c0,.1,0,.2,0,.3,0,0,0,.2,0,.3l-1.3,5.2h-2.1l-1.8-8Z"/>
            <path class="st10" d="M388.7,195.2c.5-.3,1.1-.5,1.9-.5h1.1v-.3c0-.2,0-.4-.2-.6-.1-.1-.3-.2-.6-.2s-.5,0-.6.2c-.1.1-.2.3-.2.4h0c0,.1-1.8.1-1.8.1h0c0-.6.3-1.1.8-1.4.5-.3,1.2-.5,1.9-.5s1.4.2,1.9.5c.5.3.7.8.7,1.5v2.7c0,.2,0,.4,0,.7,0,.2.1.4.2.5h0c0,0-1.8,0-1.8,0,0,0,0-.2-.1-.3,0-.1,0-.3,0-.4,0,.2-.3.4-.6.6s-.7.2-1.2.2-1-.1-1.4-.4c-.4-.3-.6-.7-.6-1.4s.3-1.2.8-1.5ZM391,189.2l1.4.8-1.8,1.7-1-.7,1.4-1.8ZM390,197c.1.1.3.2.6.2s.6,0,.8-.3.3-.4.3-.7v-.5h-.8c-.4,0-.7,0-.8.2s-.3.3-.3.5,0,.4.2.6Z"/>
            <path class="st10" d="M394.2,192.6h3.6v1.3h-3.6v-1.3ZM395,193.2v-.2s0-1.8,0-1.8h1.8v5.2c0,.3,0,.4.1.5s.2.1.4.1.2,0,.2,0,.2,0,.2,0v1.3c0,0-.2,0-.4.1-.2,0-.3,0-.5,0-.6,0-1.1-.2-1.4-.5-.4-.3-.5-.8-.5-1.5v-3.3Z"/>
            <path class="st10" d="M398.7,190h1.8v8.3h-1.8v-8.3Z"/>
            <path class="st10" d="M402.4,195.2c.5-.3,1.1-.5,1.9-.5h1.1v-.3c0-.2,0-.4-.2-.6-.1-.1-.3-.2-.6-.2s-.5,0-.6.2c-.1.1-.2.3-.2.4h0c0,.1-1.8.1-1.8.1h0c0-.6.3-1.1.8-1.4.5-.3,1.2-.5,1.9-.5s1.4.2,1.9.5c.5.3.7.8.7,1.5v2.7c0,.2,0,.4,0,.7,0,.2.1.4.2.5h0c0,0-1.8,0-1.8,0,0,0,0-.2-.1-.3,0-.1,0-.3,0-.4,0,.2-.3.4-.6.6s-.7.2-1.2.2-1-.1-1.4-.4c-.4-.3-.6-.7-.6-1.4s.3-1.2.8-1.5ZM403.6,197c.1.1.3.2.6.2s.6,0,.8-.3.3-.4.3-.7v-.5h-.8c-.4,0-.7,0-.8.2s-.3.3-.3.5,0,.4.2.6Z"/>
          </g>
          <g>
            <path d="M347.7,190.4h2.4l1.7,4.9c0,.1,0,.2.1.4,0,.1,0,.2,0,.4h0c0-.1,0-.3,0-.4,0-.1,0-.2.1-.3l1.8-4.9h2.4v7.9h-1.9v-4.8c0-.1,0-.3,0-.4s0-.3,0-.4h0c0,.1,0,.3,0,.4s0,.3-.1.4l-1.7,4.8h-1.5l-1.7-4.8c0-.1,0-.3-.1-.4s0-.3,0-.4h0c0,.1,0,.3,0,.4s0,.3,0,.4v4.8h-1.5v-7.9Z"/>
            <path d="M358.4,195.2c.5-.3,1.1-.5,1.9-.5h1.1v-.3c0-.2,0-.4-.2-.6-.1-.1-.3-.2-.6-.2s-.5,0-.6.2c-.1.1-.2.3-.2.4h0c0,.1-1.8.1-1.8.1h0c0-.6.3-1.1.8-1.4.5-.3,1.2-.5,1.9-.5s1.4.2,1.9.5c.5.3.7.8.7,1.5v2.7c0,.2,0,.4,0,.7,0,.2.1.4.2.5h0c0,0-1.8,0-1.8,0,0,0,0-.2-.1-.3,0-.1,0-.3,0-.4,0,.2-.3.4-.6.6s-.7.2-1.2.2-1-.1-1.4-.4c-.4-.3-.6-.7-.6-1.4s.3-1.2.8-1.5ZM359.7,197c.1.1.3.2.6.2s.6,0,.8-.3.3-.4.3-.7v-.5h-.8c-.4,0-.7,0-.8.2s-.3.3-.3.5,0,.4.2.6Z"/>
            <path d="M364.6,192.6h1.7v.6h0c.1-.2.3-.4.6-.5.3-.1.6-.2,1-.2.6,0,1.1.2,1.5.5.4.3.6.9.6,1.8v3.6h-1.8v-3.6c0-.3,0-.5-.2-.7s-.3-.2-.6-.2-.4,0-.6.2c-.2.1-.3.3-.4.5v3.8h-1.8v-5.8Z"/>
            <path d="M371.5,190.3c.2-.2.4-.3.8-.3s.6,0,.8.3.3.4.3.7,0,.5-.3.7-.4.3-.8.3-.6,0-.8-.3-.3-.4-.3-.7,0-.5.3-.7ZM371.4,192.6h1.8v5.8h-1.8v-5.8Z"/>
            <path d="M376.7,190.4h1.9l1.1,5.2c0,.1,0,.2,0,.3,0,0,0,.2,0,.3h0c0-.1,0-.2,0-.3,0,0,0-.2,0-.3l1.2-5.2h2.1l1.2,5.2c0,.1,0,.2,0,.3s0,.2,0,.3h0c0-.1,0-.2,0-.3s0-.2,0-.3l1.1-5.2h1.6l-1.8,8h-2.1l-1.3-5.2c0-.1,0-.2,0-.3s0-.2,0-.3h0c0,.1,0,.2,0,.3,0,0,0,.2,0,.3l-1.3,5.2h-2.1l-1.8-8Z"/>
            <path d="M388.7,195.2c.5-.3,1.1-.5,1.9-.5h1.1v-.3c0-.2,0-.4-.2-.6-.1-.1-.3-.2-.6-.2s-.5,0-.6.2c-.1.1-.2.3-.2.4h0c0,.1-1.8.1-1.8.1h0c0-.6.3-1.1.8-1.4.5-.3,1.2-.5,1.9-.5s1.4.2,1.9.5c.5.3.7.8.7,1.5v2.7c0,.2,0,.4,0,.7,0,.2.1.4.2.5h0c0,0-1.8,0-1.8,0,0,0,0-.2-.1-.3,0-.1,0-.3,0-.4,0,.2-.3.4-.6.6s-.7.2-1.2.2-1-.1-1.4-.4c-.4-.3-.6-.7-.6-1.4s.3-1.2.8-1.5ZM391,189.2l1.4.8-1.8,1.7-1-.7,1.4-1.8ZM390,197c.1.1.3.2.6.2s.6,0,.8-.3.3-.4.3-.7v-.5h-.8c-.4,0-.7,0-.8.2s-.3.3-.3.5,0,.4.2.6Z"/>
            <path d="M394.2,192.6h3.6v1.3h-3.6v-1.3ZM395,193.2v-.2s0-1.8,0-1.8h1.8v5.2c0,.3,0,.4.1.5s.2.1.4.1.2,0,.2,0,.2,0,.2,0v1.3c0,0-.2,0-.4.1-.2,0-.3,0-.5,0-.6,0-1.1-.2-1.4-.5-.4-.3-.5-.8-.5-1.5v-3.3Z"/>
            <path d="M398.7,190h1.8v8.3h-1.8v-8.3Z"/>
            <path d="M402.4,195.2c.5-.3,1.1-.5,1.9-.5h1.1v-.3c0-.2,0-.4-.2-.6-.1-.1-.3-.2-.6-.2s-.5,0-.6.2c-.1.1-.2.3-.2.4h0c0,.1-1.8.1-1.8.1h0c0-.6.3-1.1.8-1.4.5-.3,1.2-.5,1.9-.5s1.4.2,1.9.5c.5.3.7.8.7,1.5v2.7c0,.2,0,.4,0,.7,0,.2.1.4.2.5h0c0,0-1.8,0-1.8,0,0,0,0-.2-.1-.3,0-.1,0-.3,0-.4,0,.2-.3.4-.6.6s-.7.2-1.2.2-1-.1-1.4-.4c-.4-.3-.6-.7-.6-1.4s.3-1.2.8-1.5ZM403.6,197c.1.1.3.2.6.2s.6,0,.8-.3.3-.4.3-.7v-.5h-.8c-.4,0-.7,0-.8.2s-.3.3-.3.5,0,.4.2.6Z"/>
          </g>
        </g>
        <g id="titulo-Cuarenta-y-Tres">
          <g>
            <path class="st10" d="M344.6,173.3c0-1.3.3-2.3,1-2.9.7-.7,1.5-1,2.6-1s1.8.3,2.4.8c.6.5.9,1.2.9,2.1v.2h-1.9v-.2c0-.5-.1-.8-.4-1-.2-.2-.6-.3-1.1-.3s-.9.2-1.2.5-.5.9-.5,1.7v1c0,.8.1,1.3.4,1.7s.7.5,1.3.5.8-.1,1-.4c.2-.3.4-.6.4-1v-.2h1.9v.2c0,.8-.3,1.5-.9,2s-1.4.8-2.4.8-2-.3-2.6-1c-.7-.7-1-1.6-1-2.9v-.5Z"/>
            <path class="st10" d="M352.4,171.7h1.8v3.5c0,.4,0,.6.2.8.1.1.3.2.6.2s.4,0,.6-.2c.2-.1.3-.3.4-.5v-3.8h1.8v5.8h-1.7v-.6h0c-.2.2-.4.4-.7.5-.3.1-.6.2-1,.2-.6,0-1-.2-1.4-.6-.4-.4-.6-1-.6-1.9v-3.5Z"/>
            <path class="st10" d="M359.7,174.3c.5-.3,1.1-.5,1.9-.5h1.1v-.3c0-.2,0-.4-.2-.6-.1-.1-.3-.2-.6-.2s-.5,0-.6.2c-.1.1-.2.3-.2.4h0c0,.1-1.8.1-1.8.1h0c0-.6.3-1.1.8-1.4.5-.3,1.2-.5,1.9-.5s1.4.2,1.9.5c.5.3.7.8.7,1.5v2.7c0,.2,0,.4,0,.7,0,.2.1.4.2.5h0c0,0-1.8,0-1.8,0,0,0,0-.2-.1-.3,0-.1,0-.3,0-.4,0,.2-.3.4-.6.6s-.7.2-1.2.2-1-.1-1.4-.4c-.4-.3-.6-.7-.6-1.4s.3-1.2.8-1.5ZM360.9,176.2c.1.1.3.2.6.2s.6,0,.8-.3.3-.4.3-.7v-.5h-.8c-.4,0-.7,0-.8.2s-.3.3-.3.5,0,.4.2.6Z"/>
            <path class="st10" d="M365.8,171.7h1.8v.6h0c.1-.2.2-.4.4-.5.2-.1.4-.2.6-.2s.1,0,.2,0c0,0,.1,0,.2,0v1.6c0,0-.1,0-.2,0,0,0-.1,0-.2,0-.2,0-.4,0-.6.2s-.3.3-.4.5v3.6h-1.8v-5.8Z"/>
            <path class="st10" d="M369.7,174.5c0-.9.3-1.6.8-2.1s1.3-.8,2.1-.8,1.5.3,2,.8c.5.5.7,1.2.7,2.1v.6h-4.4v-1.1h2.7c0-.4,0-.6-.3-.8-.2-.2-.4-.3-.7-.3s-.6.1-.8.4c-.2.3-.3.7-.3,1.2v.4c0,.5.1.9.3,1.1.2.3.5.4.9.4s.5,0,.8-.2c.2-.2.4-.3.5-.5l1.3.8c-.2.4-.5.7-1,.9-.5.2-1,.3-1.6.3-.9,0-1.7-.3-2.2-.8-.5-.5-.8-1.3-.8-2.2v-.2Z"/>
            <path class="st10" d="M376.3,171.7h1.7v.6h0c.1-.2.3-.4.6-.5.3-.1.6-.2,1-.2.6,0,1.1.2,1.5.5.4.3.6.9.6,1.8v3.6h-1.8v-3.6c0-.3,0-.5-.2-.7s-.3-.2-.6-.2-.4,0-.6.2c-.2.1-.3.3-.4.5v3.8h-1.8v-5.8Z"/>
            <path class="st10" d="M382.4,171.7h3.6v1.3h-3.6v-1.3ZM383.2,172.4v-.2s0-1.8,0-1.8h1.8v5.2c0,.3,0,.4.1.5s.2.1.4.1.2,0,.2,0,.2,0,.2,0v1.3c0,0-.2,0-.4.1-.2,0-.3,0-.5,0-.6,0-1.1-.2-1.4-.5-.4-.3-.5-.8-.5-1.5v-3.3Z"/>
            <path class="st10" d="M387.4,174.3c.5-.3,1.1-.5,1.9-.5h1.1v-.3c0-.2,0-.4-.2-.6-.1-.1-.3-.2-.6-.2s-.5,0-.6.2c-.1.1-.2.3-.2.4h0c0,.1-1.8.1-1.8.1h0c0-.6.3-1.1.8-1.4.5-.3,1.2-.5,1.9-.5s1.4.2,1.9.5c.5.3.7.8.7,1.5v2.7c0,.2,0,.4,0,.7,0,.2.1.4.2.5h0c0,0-1.8,0-1.8,0,0,0,0-.2-.1-.3,0-.1,0-.3,0-.4,0,.2-.3.4-.6.6s-.7.2-1.2.2-1-.1-1.4-.4c-.4-.3-.6-.7-.6-1.4s.3-1.2.8-1.5ZM388.7,176.2c.1.1.3.2.6.2s.6,0,.8-.3.3-.4.3-.7v-.5h-.8c-.4,0-.7,0-.8.2s-.3.3-.3.5,0,.4.2.6Z"/>
            <path class="st10" d="M396.3,178.5c0,0,.2,0,.3,0,.1,0,.2,0,.3,0,.2,0,.5,0,.6-.2.2-.1.3-.4.4-.9h0l-2.3-5.7h1.9l1.1,3.2c0,.1,0,.3.1.4,0,.1,0,.2,0,.4h0c0-.1,0-.2,0-.4,0-.1,0-.2,0-.4l1.1-3.2h1.6l-2.4,6.4c-.2.6-.5,1-.9,1.3-.4.3-.8.4-1.4.4s-.3,0-.4,0c-.1,0-.2,0-.3,0v-1.3Z"/>
            <path class="st10" d="M404.4,169.6h6.5v1.4h-2.3v6.5h-1.9v-6.5h-2.3v-1.4Z"/>
            <path class="st10" d="M411.7,171.7h1.8v.6h0c.1-.2.2-.4.4-.5.2-.1.4-.2.6-.2s.1,0,.2,0c0,0,.1,0,.2,0v1.6c0,0-.1,0-.2,0,0,0-.1,0-.2,0-.2,0-.4,0-.6.2s-.3.3-.4.5v3.6h-1.8v-5.8Z"/>
            <path class="st10" d="M415.5,174.5c0-.9.3-1.6.8-2.1s1.3-.8,2.1-.8,1.5.3,2,.8c.5.5.7,1.2.7,2.1v.6h-4.4v-1.1h2.7c0-.4,0-.6-.3-.8-.2-.2-.4-.3-.7-.3s-.6.1-.8.4c-.2.3-.3.7-.3,1.2v.4c0,.5.1.9.3,1.1.2.3.5.4.9.4s.5,0,.8-.2c.2-.2.4-.3.5-.5l1.3.8c-.2.4-.5.7-1,.9-.5.2-1,.3-1.6.3-.9,0-1.7-.3-2.2-.8-.5-.5-.8-1.3-.8-2.2v-.2Z"/>
            <path class="st10" d="M423.6,175.7h0c0,.4,0,.5.2.6.2.1.4.2.7.2s.5,0,.6-.2c.1-.1.2-.2.2-.4s0-.3-.2-.4c-.2,0-.6-.2-1.2-.3-.7-.1-1.2-.4-1.5-.6-.3-.3-.4-.7-.4-1.1s.2-1,.7-1.3c.5-.3,1.1-.5,1.9-.5s1.4.2,1.9.5c.5.3.7.8.7,1.4h0c0,0-1.8,0-1.8,0h0c0-.3,0-.5-.2-.6-.1-.1-.3-.2-.6-.2s-.5,0-.6.1c-.1,0-.2.2-.2.4s0,.3.2.4.6.2,1.2.3c.7.1,1.2.3,1.5.6.3.3.5.7.5,1.2s-.2,1.1-.7,1.4c-.5.3-1.1.5-2,.5s-1.5-.2-2-.5c-.5-.3-.7-.8-.7-1.4h0c0,0,1.8,0,1.8,0Z"/>
          </g>
          <g>
            <path d="M344.6,173.3c0-1.3.3-2.3,1-2.9.7-.7,1.5-1,2.6-1s1.8.3,2.4.8c.6.5.9,1.2.9,2.1v.2h-1.9v-.2c0-.5-.1-.8-.4-1-.2-.2-.6-.3-1.1-.3s-.9.2-1.2.5-.5.9-.5,1.7v1c0,.8.1,1.3.4,1.7s.7.5,1.3.5.8-.1,1-.4c.2-.3.4-.6.4-1v-.2h1.9v.2c0,.8-.3,1.5-.9,2s-1.4.8-2.4.8-2-.3-2.6-1c-.7-.7-1-1.6-1-2.9v-.5Z"/>
            <path d="M352.4,171.7h1.8v3.5c0,.4,0,.6.2.8.1.1.3.2.6.2s.4,0,.6-.2c.2-.1.3-.3.4-.5v-3.8h1.8v5.8h-1.7v-.6h0c-.2.2-.4.4-.7.5-.3.1-.6.2-1,.2-.6,0-1-.2-1.4-.6-.4-.4-.6-1-.6-1.9v-3.5Z"/>
            <path d="M359.7,174.3c.5-.3,1.1-.5,1.9-.5h1.1v-.3c0-.2,0-.4-.2-.6-.1-.1-.3-.2-.6-.2s-.5,0-.6.2c-.1.1-.2.3-.2.4h0c0,.1-1.8.1-1.8.1h0c0-.6.3-1.1.8-1.4.5-.3,1.2-.5,1.9-.5s1.4.2,1.9.5c.5.3.7.8.7,1.5v2.7c0,.2,0,.4,0,.7,0,.2.1.4.2.5h0c0,0-1.8,0-1.8,0,0,0,0-.2-.1-.3,0-.1,0-.3,0-.4,0,.2-.3.4-.6.6s-.7.2-1.2.2-1-.1-1.4-.4c-.4-.3-.6-.7-.6-1.4s.3-1.2.8-1.5ZM360.9,176.2c.1.1.3.2.6.2s.6,0,.8-.3.3-.4.3-.7v-.5h-.8c-.4,0-.7,0-.8.2s-.3.3-.3.5,0,.4.2.6Z"/>
            <path d="M365.8,171.7h1.8v.6h0c.1-.2.2-.4.4-.5.2-.1.4-.2.6-.2s.1,0,.2,0c0,0,.1,0,.2,0v1.6c0,0-.1,0-.2,0,0,0-.1,0-.2,0-.2,0-.4,0-.6.2s-.3.3-.4.5v3.6h-1.8v-5.8Z"/>
            <path d="M369.7,174.5c0-.9.3-1.6.8-2.1s1.3-.8,2.1-.8,1.5.3,2,.8c.5.5.7,1.2.7,2.1v.6h-4.4v-1.1h2.7c0-.4,0-.6-.3-.8-.2-.2-.4-.3-.7-.3s-.6.1-.8.4c-.2.3-.3.7-.3,1.2v.4c0,.5.1.9.3,1.1.2.3.5.4.9.4s.5,0,.8-.2c.2-.2.4-.3.5-.5l1.3.8c-.2.4-.5.7-1,.9-.5.2-1,.3-1.6.3-.9,0-1.7-.3-2.2-.8-.5-.5-.8-1.3-.8-2.2v-.2Z"/>
            <path d="M376.3,171.7h1.7v.6h0c.1-.2.3-.4.6-.5.3-.1.6-.2,1-.2.6,0,1.1.2,1.5.5.4.3.6.9.6,1.8v3.6h-1.8v-3.6c0-.3,0-.5-.2-.7s-.3-.2-.6-.2-.4,0-.6.2c-.2.1-.3.3-.4.5v3.8h-1.8v-5.8Z"/>
            <path d="M382.4,171.7h3.6v1.3h-3.6v-1.3ZM383.2,172.4v-.2s0-1.8,0-1.8h1.8v5.2c0,.3,0,.4.1.5s.2.1.4.1.2,0,.2,0,.2,0,.2,0v1.3c0,0-.2,0-.4.1-.2,0-.3,0-.5,0-.6,0-1.1-.2-1.4-.5-.4-.3-.5-.8-.5-1.5v-3.3Z"/>
            <path d="M387.4,174.3c.5-.3,1.1-.5,1.9-.5h1.1v-.3c0-.2,0-.4-.2-.6-.1-.1-.3-.2-.6-.2s-.5,0-.6.2c-.1.1-.2.3-.2.4h0c0,.1-1.8.1-1.8.1h0c0-.6.3-1.1.8-1.4.5-.3,1.2-.5,1.9-.5s1.4.2,1.9.5c.5.3.7.8.7,1.5v2.7c0,.2,0,.4,0,.7,0,.2.1.4.2.5h0c0,0-1.8,0-1.8,0,0,0,0-.2-.1-.3,0-.1,0-.3,0-.4,0,.2-.3.4-.6.6s-.7.2-1.2.2-1-.1-1.4-.4c-.4-.3-.6-.7-.6-1.4s.3-1.2.8-1.5ZM388.7,176.2c.1.1.3.2.6.2s.6,0,.8-.3.3-.4.3-.7v-.5h-.8c-.4,0-.7,0-.8.2s-.3.3-.3.5,0,.4.2.6Z"/>
            <path d="M396.3,178.5c0,0,.2,0,.3,0,.1,0,.2,0,.3,0,.2,0,.5,0,.6-.2.2-.1.3-.4.4-.9h0l-2.3-5.7h1.9l1.1,3.2c0,.1,0,.3.1.4,0,.1,0,.2,0,.4h0c0-.1,0-.2,0-.4,0-.1,0-.2,0-.4l1.1-3.2h1.6l-2.4,6.4c-.2.6-.5,1-.9,1.3-.4.3-.8.4-1.4.4s-.3,0-.4,0c-.1,0-.2,0-.3,0v-1.3Z"/>
            <path d="M404.4,169.6h6.5v1.4h-2.3v6.5h-1.9v-6.5h-2.3v-1.4Z"/>
            <path d="M411.7,171.7h1.8v.6h0c.1-.2.2-.4.4-.5.2-.1.4-.2.6-.2s.1,0,.2,0c0,0,.1,0,.2,0v1.6c0,0-.1,0-.2,0,0,0-.1,0-.2,0-.2,0-.4,0-.6.2s-.3.3-.4.5v3.6h-1.8v-5.8Z"/>
            <path d="M415.5,174.5c0-.9.3-1.6.8-2.1s1.3-.8,2.1-.8,1.5.3,2,.8c.5.5.7,1.2.7,2.1v.6h-4.4v-1.1h2.7c0-.4,0-.6-.3-.8-.2-.2-.4-.3-.7-.3s-.6.1-.8.4c-.2.3-.3.7-.3,1.2v.4c0,.5.1.9.3,1.1.2.3.5.4.9.4s.5,0,.8-.2c.2-.2.4-.3.5-.5l1.3.8c-.2.4-.5.7-1,.9-.5.2-1,.3-1.6.3-.9,0-1.7-.3-2.2-.8-.5-.5-.8-1.3-.8-2.2v-.2Z"/>
            <path d="M423.6,175.7h0c0,.4,0,.5.2.6.2.1.4.2.7.2s.5,0,.6-.2c.1-.1.2-.2.2-.4s0-.3-.2-.4c-.2,0-.6-.2-1.2-.3-.7-.1-1.2-.4-1.5-.6-.3-.3-.4-.7-.4-1.1s.2-1,.7-1.3c.5-.3,1.1-.5,1.9-.5s1.4.2,1.9.5c.5.3.7.8.7,1.4h0c0,0-1.8,0-1.8,0h0c0-.3,0-.5-.2-.6-.1-.1-.3-.2-.6-.2s-.5,0-.6.1c-.1,0-.2.2-.2.4s0,.3.2.4.6.2,1.2.3c.7.1,1.2.3,1.5.6.3.3.5.7.5,1.2s-.2,1.1-.7,1.4c-.5.3-1.1.5-2,.5s-1.5-.2-2-.5c-.5-.3-.7-.8-.7-1.4h0c0,0,1.8,0,1.8,0Z"/>
          </g>
        </g>
        <g id="titulo-El-Lanchon">
          <g>
            <path class="st10" d="M453.2,166.6h5.5v1.4h-3.6v1.8h3.1v1.4h-3.1v2h3.7v1.4h-5.5v-7.9Z"/>
            <path class="st10" d="M459.8,166.2h1.8v8.3h-1.8v-8.3Z"/>
            <path class="st10" d="M465.8,166.6h1.9v6.5h3.4v1.4h-5.3v-7.9Z"/>
            <path class="st10" d="M472.4,171.4c.5-.3,1.1-.5,1.9-.5h1.1v-.3c0-.2,0-.4-.2-.6-.1-.1-.3-.2-.6-.2s-.5,0-.6.2c-.1.1-.2.3-.2.4h0c0,.1-1.8.1-1.8.1h0c0-.6.3-1.1.8-1.4.5-.3,1.2-.5,1.9-.5s1.4.2,1.9.5c.5.3.7.8.7,1.5v2.7c0,.2,0,.4,0,.7,0,.2.1.4.2.5h0c0,0-1.8,0-1.8,0,0,0,0-.2-.1-.3,0-.1,0-.3,0-.4,0,.2-.3.4-.6.6s-.7.2-1.2.2-1-.1-1.4-.4c-.4-.3-.6-.7-.6-1.4s.3-1.2.8-1.5ZM473.7,173.3c.1.1.3.2.6.2s.6,0,.8-.3.3-.4.3-.7v-.5h-.8c-.4,0-.7,0-.8.2s-.3.3-.3.5,0,.4.2.6Z"/>
            <path class="st10" d="M478.6,168.8h1.7v.6h0c.1-.2.3-.4.6-.5.3-.1.6-.2,1-.2.6,0,1.1.2,1.5.5.4.3.6.9.6,1.8v3.6h-1.8v-3.6c0-.3,0-.5-.2-.7s-.3-.2-.6-.2-.4,0-.6.2c-.2.1-.3.3-.4.5v3.8h-1.8v-5.8Z"/>
            <path class="st10" d="M485,171.6c0-.9.3-1.6.8-2.2.6-.5,1.3-.8,2.2-.8s1.5.2,2,.6.7.9.7,1.5h0c0,.1-1.8.1-1.8.1h0c0-.3,0-.5-.2-.7s-.4-.2-.7-.2-.6.1-.8.4c-.2.3-.3.6-.3,1.1v.4c0,.5,0,.9.3,1.1s.5.4.9.4.6,0,.7-.3c.1-.2.2-.4.2-.6h0c0,0,1.8,0,1.8,0h0c0,.7-.2,1.2-.7,1.6s-1.1.6-2,.6-1.6-.3-2.2-.8c-.6-.5-.8-1.2-.8-2.2v-.2Z"/>
            <path class="st10" d="M491.7,166.2h1.8v3.4c.2-.3.4-.5.7-.6.3-.2.6-.3,1.1-.3s1,.2,1.3.5c.4.3.5.9.5,1.7v3.7h-1.8v-3.5c0-.3,0-.6-.2-.7-.2-.1-.4-.2-.6-.2s-.4,0-.6.2c-.2.1-.3.3-.3.6v3.7h-1.8v-8.3Z"/>
            <path class="st10" d="M498.1,171.6c0-.9.3-1.6.9-2.2.6-.5,1.3-.8,2.2-.8s1.6.3,2.2.8c.6.5.9,1.2.9,2.2v.2c0,.9-.3,1.6-.9,2.2-.6.5-1.3.8-2.2.8s-1.6-.3-2.2-.8c-.6-.5-.9-1.3-.9-2.2v-.2ZM500,171.9c0,.5.1.9.3,1.1.2.2.5.3.9.3s.7-.1.9-.3c.2-.2.3-.6.3-1.1v-.4c0-.5-.1-.9-.3-1.1-.2-.2-.5-.4-.9-.4s-.7.1-.9.4c-.2.2-.3.6-.3,1.1v.4Z"/>
            <path class="st10" d="M505.2,168.8h1.7v.6h0c.1-.2.3-.4.6-.5.3-.1.6-.2,1-.2.6,0,1.1.2,1.5.5.4.3.6.9.6,1.8v3.6h-1.8v-3.6c0-.3,0-.5-.2-.7s-.3-.2-.6-.2-.4,0-.6.2c-.2.1-.3.3-.4.5v3.8h-1.8v-5.8Z"/>
          </g>
          <g>
            <path d="M453.2,166.6h5.5v1.4h-3.6v1.8h3.1v1.4h-3.1v2h3.7v1.4h-5.5v-7.9Z"/>
            <path d="M459.8,166.2h1.8v8.3h-1.8v-8.3Z"/>
            <path d="M465.8,166.6h1.9v6.5h3.4v1.4h-5.3v-7.9Z"/>
            <path d="M472.4,171.4c.5-.3,1.1-.5,1.9-.5h1.1v-.3c0-.2,0-.4-.2-.6-.1-.1-.3-.2-.6-.2s-.5,0-.6.2c-.1.1-.2.3-.2.4h0c0,.1-1.8.1-1.8.1h0c0-.6.3-1.1.8-1.4.5-.3,1.2-.5,1.9-.5s1.4.2,1.9.5c.5.3.7.8.7,1.5v2.7c0,.2,0,.4,0,.7,0,.2.1.4.2.5h0c0,0-1.8,0-1.8,0,0,0,0-.2-.1-.3,0-.1,0-.3,0-.4,0,.2-.3.4-.6.6s-.7.2-1.2.2-1-.1-1.4-.4c-.4-.3-.6-.7-.6-1.4s.3-1.2.8-1.5ZM473.7,173.3c.1.1.3.2.6.2s.6,0,.8-.3.3-.4.3-.7v-.5h-.8c-.4,0-.7,0-.8.2s-.3.3-.3.5,0,.4.2.6Z"/>
            <path d="M478.6,168.8h1.7v.6h0c.1-.2.3-.4.6-.5.3-.1.6-.2,1-.2.6,0,1.1.2,1.5.5.4.3.6.9.6,1.8v3.6h-1.8v-3.6c0-.3,0-.5-.2-.7s-.3-.2-.6-.2-.4,0-.6.2c-.2.1-.3.3-.4.5v3.8h-1.8v-5.8Z"/>
            <path d="M485,171.6c0-.9.3-1.6.8-2.2.6-.5,1.3-.8,2.2-.8s1.5.2,2,.6.7.9.7,1.5h0c0,.1-1.8.1-1.8.1h0c0-.3,0-.5-.2-.7s-.4-.2-.7-.2-.6.1-.8.4c-.2.3-.3.6-.3,1.1v.4c0,.5,0,.9.3,1.1s.5.4.9.4.6,0,.7-.3c.1-.2.2-.4.2-.6h0c0,0,1.8,0,1.8,0h0c0,.7-.2,1.2-.7,1.6s-1.1.6-2,.6-1.6-.3-2.2-.8c-.6-.5-.8-1.2-.8-2.2v-.2Z"/>
            <path d="M491.7,166.2h1.8v3.4c.2-.3.4-.5.7-.6.3-.2.6-.3,1.1-.3s1,.2,1.3.5c.4.3.5.9.5,1.7v3.7h-1.8v-3.5c0-.3,0-.6-.2-.7-.2-.1-.4-.2-.6-.2s-.4,0-.6.2c-.2.1-.3.3-.3.6v3.7h-1.8v-8.3Z"/>
            <path d="M498.1,171.6c0-.9.3-1.6.9-2.2.6-.5,1.3-.8,2.2-.8s1.6.3,2.2.8c.6.5.9,1.2.9,2.2v.2c0,.9-.3,1.6-.9,2.2-.6.5-1.3.8-2.2.8s-1.6-.3-2.2-.8c-.6-.5-.9-1.3-.9-2.2v-.2ZM500,171.9c0,.5.1.9.3,1.1.2.2.5.3.9.3s.7-.1.9-.3c.2-.2.3-.6.3-1.1v-.4c0-.5-.1-.9-.3-1.1-.2-.2-.5-.4-.9-.4s-.7.1-.9.4c-.2.2-.3.6-.3,1.1v.4Z"/>
            <path d="M505.2,168.8h1.7v.6h0c.1-.2.3-.4.6-.5.3-.1.6-.2,1-.2.6,0,1.1.2,1.5.5.4.3.6.9.6,1.8v3.6h-1.8v-3.6c0-.3,0-.5-.2-.7s-.3-.2-.6-.2-.4,0-.6.2c-.2.1-.3.3-.4.5v3.8h-1.8v-5.8Z"/>
          </g>
        </g>
      </g>
    </g>
  </g>
  <g id="referencia">
    <g id="zs8KWV">
      <g>
        <path class="st35" d="M395.8,463c-.2-.9-1.5-.3-1.8-.6s0-.4.2-.4l1.1-.6,3.9-.2c.1.1.4.2.5.2s.3-.2.5-.3c.5-.3.8-.7,1.2-1.1l.3-.4c0-.1-.1-.5,0-.6l.2-.4c0,0-.3-.4-.2-.5.2-.4.4-1.1.4-1.5l.7-.6h.8c.3,0,.8.3,1.1.5l.6-.6c.2-.2,0-.9-.2-1.1l-.4-.4c0-.1.2-.4.2-.6.1-.8-.3-2-.6-2.7l.2-.7c0-.2-.4-.4-.4-.5,0-.5.4-1.1.2-1.7.8-.9,1.9,0,3.1-.7s1.1,1.2,2,.2l.4.5h1.6c0,0,.6-1.3.6-1.3.5-1,2.2-1.8,1.8-2.4.5,0,.7-.4.7-.9.8-.5,1.5-.9,2.6-.9l-.6,1.4c.5.4,1.4.9,1.9,1.2s.2.5.3.4l.4-.3c.6-.4.7,1,1.1,1.3s.5,0,.7,0h.4c0,0,.2-.1.1-.2l-.3-.3v-1.5c.1,0,1-.4,1-.4,0,0,.4.2.4.1l.3-.3c.5-.2,1.1-.5,1.5-.9.2.1.4.2.6.1s.3-.3.4-.4l.8-.6c.2-.1.7-.1.8-.4l.4-1.2c0,0,0-.3,0-.3s.2,0,.2,0c1.2-1.4,2.6-.3,3.2-.9s.3-.6.2-.7c-.2-.2-.4-.6-.5-.9l-.3-.3c-.2-.1.6-.7.6-1.7.5-.4.7-1,.4-1.6,0-.1.2-.4.3-.4.3-.1.6.6.8.5.4-.2.8-.6,1-.9-.1-.1-.3-.2-.2-.3v-.4c0,0-.2-.2-.2-.2l.4-.7c.3-.5,1-.9,1.5-1.2.3-.6.6-.9,1.2-.8.2-.2.5-.3.8-.2.4.1.3.7,1,1l-.3.2s.1.2.2.2l.7.9.2.3c0,0,.2-.2.2-.3.3.2.5.3.8.2.5.2,1.1.3,1.6.4l.8.6c.9-.4,1.5-.9,2.1-1.7l.3.6c.7-.2.8.3,1.2.2s-.2-.8,0-1.3.6-.4.7-.2.2.4.3.5.5.2.6.1l1.1-.3c-.1-.2-.3-.6-.2-.8s.3-.2.4-.1l.3.3.7.3h.9c.2,0,.6-.2.8,0v-.5s1.3,0,1.3,0c.3-.5.9-.7,1.5-.6,0-.5.5-.4.7-.6.2-.2.3-.5.6-.6s.6,0,.9.1c.2-.5.6-.7.9-1,.7-.6.6-1.5,1.2-1.5s.3.2.4.5c.5,0,1-.3,1.1-.9.3,0,.6.4.8.4h.8c.4,0,.8.1,1.2.3.5-.1,1.1-.2,1.7-.2-.4.6-1.3.6-1.6,1.2s-.9,1.5-1,2.3c-.3,3,2,5.6,1.7,8.4l-1.4,2.9-2.3,2.9c-.8,2.3-1.3,4.6-1.5,7-.4,1.4-.6,2.7-.6,4.1,0,2.5.4,5,1.1,7.4l-.5,3.2c-.2,1.1-.2,2.2.3,3.2.6.6.8,1.6.5,2.4-.8-.2-1.4-.1-2,.3-1,1.7-1.4,3.7-1,5.7,0,0-.2.5-.3.4-.2-.2-.5-.6-.6-.7-.5.3-.7.7-.4,1.2-.2.8-.5,1.5-1.2,1.9l.3.2c0,0,0,1.1,1.2,1.1-.2-.5,0-1.1,0-1.5,0-.7-.2-1.5.5-2.1,0,.8-.3,1.4-.1,2.1l.7,1.9.6,2.7c0,.1,0,.5,0,.5h-.6c-.9.8-1.3.6-1.5,1.8,0,.5-.3.8-.8.8-1.3,1.3-.6,3.4,0,5.2s.9,2.3,1.9,3.1c.6.2,1,.9.8,1.6.2.3.2.7,0,1-1.1.3-2.1.6-3.1,1.3s-.9.2-1.4.4c-.6-.4-1.1-.9-1.6-1.4-.4.4-.9.6-1.4.3-.1,0-.3.2-.3.1l-.3-.3c-.7,0-1.4,0-1.7-.6.1,0,.5-.3.4-.4l-.3-.5c-.4-.1-.8-.3-1-.6-.7,0-.9-.6-.9-1.2s-1.2.8-1.6.4c-.6-.5-1.1-.8-1.8-1.1s-.6-.5-.9-.2l-1.3-.7-3.8,2.4-5.5-2.1c-.7-.3-1.3-.7-2.1-.9-1.1-.2-2.1-.3-3-1-.2-.5-.8-.8-1.3-.6l-1.5,2.5-1.7-.8c-.3-1-.9-1.9-1.8-2.4-.4-.7-1-1.2-1.8-1.6-.7-.9-1.7-1.6-2.7-2.3-.5-.7-1.2-1.3-2-1.7-.6-.3-1-.7-1.5-1.1-.7-.7-1.6-1.3-2.4-2-.1-.2-.2-.7-.4-.9l-1.4-1.6c0-.6-.4-1-.9-1.2l-1.2-2c-.3-.6-.5-1.2-.8-1.8l-3.8-2.6-2.8-1.9v-.2c.1,0,1.8,1.1,1.8,1.1h0c0,0-1.6-1.4-1.6-1.4,0,0,0-.3-.1-.3h-.3c-.7-.7-1.6-1.4-2.6-1.6-1-1.8-2.6-3.2-4.4-4.1-.4-.4-.9-.8-1.4-1.1-.1-.8.5-1.5,1.2-1.7l.6-1.2c.2.4.4.5.7.7l1.1,1v.7c1.7,1.1,2.6,0,3.4.8ZM461,430.2c.3-.1.6-.3.6-.4s0-.4,0-.4l.3-.2v-1.3c-.9,0-1.5,1.6-1.5,1.6l.3.6c.1.3.1.6.4.7s.6.2.7-.2l-.7-.3ZM462.4,439.2l.2.7c.4-.4.4-1,0-1.4.1-.4,0-.9-.4-1l-.4.2c0,0,.2.3.2.4-.1.3-.2,1,0,1.3l.4-.2ZM458,444.9c.3,0,.7,0,.9-.2s.2-.5.1-.9l-.7-1.7c.4,0,.6,0,.8-.2s0-.5,0-.6-.4-.2-.7-.2l-.7-1.4c-.9,0-2.1-.2-2.9.4s-.5,1.6-.4,2.2c-.5.5-1.1.8-1.7,1l-1.3.5c.1,1.7,2,3.4,3.6,3.4,2.4,0,2-1.1,3-2.5ZM459.3,443.4c.2-.4,0-.8-.4-1,0,.4.1.8.4,1ZM459.6,445.5l-.2-1.5-.2,1c0,.2,0,.5.3.5ZM457.8,450.6c.4-.2.5-.6.6-.9l.2-1.3c-.2,0-.4.1-.6.2s0,.4,0,.6c-.2.4-.6,1-.2,1.4ZM456.7,463.7c0-.5-.5-.6-.8-.8,0,.3,0,.6.1.7s.7.2.7,0ZM455.8,464.6v-.3c0,0-.3,0-.3,0l-.7-.5c0,0-.3,0-.3,0s0,.2.1.2c.6,0,1.2,1.1,1.3.6ZM456.5,472.4c0,.3,0,.7,0,.9l.3-1.3c0-.1-.1-.3-.2-.4,1.8-1-.2-1.3.4-3.4h.9c.6-.7,0-2.1.5-3.2s-.2-1-.7-1.1-1,.3-.9.9c.6.3.7.8.7,1.4.1.3.3.7.1,1.1s-.5.4-.8.6-.7.6-1.2.7-.5,0-.6,0c-.2.2-.4.8-.3,1.1s.4.1.5.2c.6.9-.2,2.3.4,2.4s.4,0,.5-.2h.1c0-.1.2-.1.2,0v.3ZM412.4,473.9c.3.9-.6,1-.7,1.4s2.4.1,3.5,0c.3-1.1.7-3.1,0-3.1s-.7,1-1.4,1.3c.2-1.1-.6-1.7-1-2.4-.2-.4.3-1.2-.5-1.5s-.8.4-1.2.6c-1,.3-1.8.6-2.3,1.6-.9,0-1.6-.9-1.7-.7v.3c-.5,1.8,1.5,1.7,3.2,2.9l.9-.9c.1-.1.6-.2.8,0s.3.4.3.6ZM455.4,476.8c.4-.5.8-1.3,0-1.7.4.5.2,1.1-.1,1.6h0s0,.2,0,.2h0ZM454.4,475.4s-.1,0-.2,0h-.5s0,.1,0,.1h.6ZM454.7,475.4c-.1,0-.2,0,0,0h0ZM454.8,475.4h0c0,0,.1.2.1.2,0,0,.2,0,.1,0h-.1c0,0-.1-.2-.1-.2ZM455.1,475.7h0s0,0,0,0h0s0,0,0,0ZM434.2,494.4c.4.2.8.2,1.1.2.2,0,.5.4.7.3l.7-.3c.5-.2.9-.5,1.1-.8.4-.5-.1-1-.1-1.5.2-2.6-.9-1.9-1.5-3.3l-.3-.2c-.2,0,.3-.8-.7-1.3-.6-.8-1.3-1.5-2.1-2.1-.4-.8-.9-1.4-1.6-1.9-.9-1.8-1.7-1.1-2.4-2.1-1.1-1.6-2.4-1-2.4-1,0,0-.3-.1-.4-.2l-1.4-2c-.9-1.3-1.3-.5-1.8-.7s-1.1-1.2-2.2-1h-1.4c-.8.6-1.4,1.9-1.3,2.8l.2.8c0,.2.4.2.7.2-.2.4-.2.8,0,1.2.3.9-1.1,1-.5,2s.4.3.8.4c0,.8.3,1.5.8,2.1.4.6.8,1.3.7,2,.8,1.4,1.9,2.4,3.3,3.2.5.1,1,.2,1.3.8.4.2.9.6,1.4.6,2.3.2,3.4,1.5,4.6,1.2l1.1.3c.5.1.9.2,1.5.2ZM455.3,476.6h0c0,0,0,0,0,0ZM455.5,476.9h0c0,0,0,0,0,0Z"/>
        <path class="st35" d="M461.3,469.4c0,0,.2.2.2.2l-.2.2c0,0,0-.2,0-.4Z"/>
        <path class="st35" d="M426,488.4c-.5.2-1.3-.1-1.4-.7s-.1-.5-.2-.6c-.4-.3-1.7.5-2-.5s.3-1,.7-1.2,1.2-.3,1.4.3.2,1.3,1,1.3.8,0,.9.4,0,.8-.4,1Z"/>
        <path class="st35" d="M420.8,483.2c-.2.3-1.4,0-1.3-.6s1.2-.5,1.4-.2,0,.7,0,.8Z"/>
        <path class="st35" d="M434.3,492.5c-.4.2-.6.3-.7.3s-.6-.3-.5-.4l.6-.5.6.6Z"/>
        <path class="st35" d="M435.1,492.8l.2.2c0,0,0,.3,0,.3-.2-.1-.6-.6-.7-.8s.3-.2.3,0l.2.5Z"/>
      </g>
    </g>
    <circle class="st11" cx="453.6" cy="444.5" r="11.3"/>
    <circle class="st54" cx="453.6" cy="444.5" r="5.4"/>
    <g class="st34">
      <line class="st19" x1="462.9" y1="421.9" x2="462.9" y2="366.4"/>
    </g>
    <rect class="st7" x="381.7" y="422.3" width="103.1" height="83.9" rx="25.6" ry="25.6"/>
  </g>
</svg>