<?xml version="1.0" encoding="UTF-8"?>
<svg xmlns="http://www.w3.org/2000/svg" xmlns:xlink="http://www.w3.org/1999/xlink" version="1.1" viewBox="0 0 781.7 1080" preserveAspectRatio="xMidYMid meet">
  <!-- Generator: Adobe Illustrator 30.3.0, SVG Export Plug-In . SVG Version: 2.1.3 Build 182)  -->
  <defs>
    <style>
      .st0, .st1, .st2, .st3, .st4, .st5, .st6, .st7 {
        fill: none;
      }

      .st1 {
        stroke: #4c79af;
      }

      .st1, .st2, .st3, .st8, .st4, .st5, .st6, .st9, .st7 {
        stroke-miterlimit: 10;
      }

      .st1, .st4, .st5 {
        stroke-width: 11px;
      }

      .st2 {
        stroke: #e21f26;
        stroke-width: 3px;
      }

      .st10 {
        font-family: MyriadPro-Regular, 'Myriad Pro';
        font-size: 21.6px;
      }

      .st3 {
        stroke: #f266b6;
      }

      .st3, .st6 {
        stroke-width: 6px;
      }

      .st8 {
        fill: #a47057;
        stroke: #231006;
      }

      .st8, .st9 {
        stroke-width: 5px;
      }

      .st11 {
        clip-path: url(#clippath-1);
      }

      .st12 {
        clip-path: url(#clippath-3);
      }

      .st13 {
        clip-path: url(#clippath-4);
      }

      .st14 {
        clip-path: url(#clippath-2);
      }

      .st15 {
        clip-path: url(#clippath-5);
      }

      .st4 {
        stroke: #d8e580;
      }

      .st5 {
        stroke: #f4b527;
      }

      .st6 {
        stroke: #006345;
      }

      .st9 {
        fill: #3a3a3a;
        stroke: #fff;
      }

      .st16 {
        display: none;
      }

      .st17 {
        clip-path: url(#clippath);
      }

      .st7 {
        stroke: #45d62a;
        stroke-width: 8px;
      }
    </style>
    <clipPath id="clippath">
      <rect class="st0" x="350.5" y="196.5" width="97.4" height="77.8"/>
    </clipPath>
    <clipPath id="clippath-1">
      <polygon class="st0" points="136.7 459.8 374.3 459.8 374.3 445.1 370.6 445.1 370.6 435.4 367 435.4 367 417.5 363.3 417.5 363.3 388.2 369.3 388.2 369.3 379.9 374.8 379.9 374.8 323 469.8 323 469.8 156.3 356 156.3 356 116.9 279.8 116.9 279.8 231.6 198.5 231.6 196.7 327.6 226.5 400.6 214.6 402.9 159 433.1 151.7 447.4 136.7 459.8"/>
    </clipPath>
    <clipPath id="clippath-2">
      <polygon class="st0" points="379.2 90.8 379.2 155.5 356 155.5 356 116.9 279.8 116.9 279.8 231.2 199 231.2 226.1 120.1 379.2 90.8"/>
    </clipPath>
    <clipPath id="clippath-3">
      <rect class="st0" x="374.3" y="327" width="97.4" height="184.5"/>
    </clipPath>
    <clipPath id="clippath-4">
      <polygon class="st0" points="318 536.7 412.7 536.7 412.7 515.5 375.3 515.5 375.3 509.2 359.6 509.2 359.6 503.9 339.4 503.9 339.4 497.8 318.7 497.8 318 536.7"/>
    </clipPath>
    <clipPath id="clippath-5">
      <polygon class="st0" points="136.7 459.8 245 459.8 245 770.6 -74 770.6 -92.9 761.2 -169.4 579.9 -94.1 562.2 89.6 489.2 136.7 459.8"/>
    </clipPath>
  </defs>
  <g id="Layer_1" class="st16">
    <image width="2178" height="1952" transform="translate(-247.9 -1.3) scale(.6)" xlink:href="../../../../ENTREGA_20ABRIL_26/ai/03_Waupasa Twi - limpio.png"/>
  </g>
  <g id="caribe">
    <g class="st17">
      <g>
        <line class="st1" x1="453.3" y1="360.1" x2="288.6" y2="195.3"/>
        <line class="st1" x1="471.3" y1="360.1" x2="306.6" y2="195.3"/>
        <line class="st1" x1="489.3" y1="360.1" x2="324.6" y2="195.3"/>
        <line class="st1" x1="507.3" y1="360.1" x2="342.6" y2="195.3"/>
        <line class="st1" x1="525.3" y1="360.1" x2="360.6" y2="195.3"/>
        <line class="st1" x1="543.4" y1="360.1" x2="378.6" y2="195.3"/>
        <line class="st1" x1="561.4" y1="360.1" x2="396.6" y2="195.3"/>
        <line class="st1" x1="579.4" y1="360.1" x2="414.6" y2="195.3"/>
        <line class="st1" x1="597.4" y1="360.1" x2="432.6" y2="195.3"/>
        <line class="st1" x1="615.4" y1="360.1" x2="450.6" y2="195.3"/>
      </g>
    </g>
  </g>
  <g id="columbus-i">
    <rect class="st7" x="340.8" y="288.8" width="30.3" height="12.8"/>
  </g>
  <g id="el-encanto-i">
    <g class="st11">
      <g>
        <g>
          <circle class="st6" cx="214.6" cy="438.6" r="13.3"/>
          <circle class="st6" cx="241.2" cy="412" r="13.3"/>
          <circle class="st6" cx="267.7" cy="385.4" r="13.3"/>
          <circle class="st6" cx="294.3" cy="358.9" r="13.3"/>
          <circle class="st6" cx="320.9" cy="332.3" r="13.3"/>
          <circle class="st6" cx="347.4" cy="305.8" r="13.3"/>
          <circle class="st6" cx="374" cy="279.2" r="13.3"/>
          <circle class="st6" cx="400.6" cy="252.6" r="13.3"/>
          <circle class="st6" cx="427.1" cy="226.1" r="13.3"/>
          <circle class="st6" cx="453.7" cy="199.5" r="13.3"/>
          <circle class="st6" cx="480.3" cy="172.9" r="13.3"/>
          <circle class="st6" cx="506.8" cy="146.4" r="13.3"/>
          <circle class="st6" cx="533.4" cy="119.8" r="13.3"/>
        </g>
        <g>
          <circle class="st6" cx="273.6" cy="438.6" r="13.3"/>
          <circle class="st6" cx="300.1" cy="412" r="13.3"/>
          <circle class="st6" cx="326.7" cy="385.4" r="13.3"/>
          <circle class="st6" cx="353.3" cy="358.9" r="13.3"/>
          <circle class="st6" cx="379.8" cy="332.3" r="13.3"/>
          <circle class="st6" cx="406.4" cy="305.8" r="13.3"/>
          <circle class="st6" cx="433" cy="279.2" r="13.3"/>
          <circle class="st6" cx="459.5" cy="252.6" r="13.3"/>
          <circle class="st6" cx="486.1" cy="226.1" r="13.3"/>
          <circle class="st6" cx="512.7" cy="199.5" r="13.3"/>
          <circle class="st6" cx="539.2" cy="172.9" r="13.3"/>
          <circle class="st6" cx="565.8" cy="146.4" r="13.3"/>
          <circle class="st6" cx="592.4" cy="119.8" r="13.3"/>
        </g>
        <g>
          <circle class="st6" cx="332.5" cy="438.6" r="13.3"/>
          <circle class="st6" cx="359.1" cy="412" r="13.3"/>
          <circle class="st6" cx="385.7" cy="385.4" r="13.3"/>
          <circle class="st6" cx="412.2" cy="358.9" r="13.3"/>
          <circle class="st6" cx="438.8" cy="332.3" r="13.3"/>
          <circle class="st6" cx="465.4" cy="305.8" r="13.3"/>
          <circle class="st6" cx="491.9" cy="279.2" r="13.3"/>
          <circle class="st6" cx="518.5" cy="252.6" r="13.3"/>
          <circle class="st6" cx="545.1" cy="226.1" r="13.3"/>
          <circle class="st6" cx="571.6" cy="199.5" r="13.3"/>
          <circle class="st6" cx="598.2" cy="172.9" r="13.3"/>
          <circle class="st6" cx="624.8" cy="146.4" r="13.3"/>
          <circle class="st6" cx="651.3" cy="119.8" r="13.3"/>
        </g>
        <g>
          <circle class="st6" cx="418.1" cy="412" r="13.3"/>
          <circle class="st6" cx="444.6" cy="385.4" r="13.3"/>
          <circle class="st6" cx="471.2" cy="358.9" r="13.3"/>
          <circle class="st6" cx="497.8" cy="332.3" r="13.3"/>
          <circle class="st6" cx="524.3" cy="305.8" r="13.3"/>
          <circle class="st6" cx="550.9" cy="279.2" r="13.3"/>
          <circle class="st6" cx="577.5" cy="252.6" r="13.3"/>
          <circle class="st6" cx="604" cy="226.1" r="13.3"/>
          <circle class="st6" cx="630.6" cy="199.5" r="13.3"/>
          <circle class="st6" cx="657.1" cy="172.9" r="13.3"/>
          <circle class="st6" cx="683.7" cy="146.4" r="13.3"/>
          <circle class="st6" cx="710.3" cy="119.8" r="13.3"/>
        </g>
        <g>
          <circle class="st6" cx="156.2" cy="438.6" r="13.3"/>
          <circle class="st6" cx="182.7" cy="412" r="13.3"/>
          <circle class="st6" cx="209.3" cy="385.4" r="13.3"/>
          <circle class="st6" cx="235.9" cy="358.9" r="13.3"/>
          <circle class="st6" cx="262.4" cy="332.3" r="13.3"/>
          <circle class="st6" cx="289" cy="305.8" r="13.3"/>
          <circle class="st6" cx="315.6" cy="279.2" r="13.3"/>
          <circle class="st6" cx="342.1" cy="252.6" r="13.3"/>
          <circle class="st6" cx="368.7" cy="226.1" r="13.3"/>
          <circle class="st6" cx="395.3" cy="199.5" r="13.3"/>
          <circle class="st6" cx="421.8" cy="172.9" r="13.3"/>
          <circle class="st6" cx="448.4" cy="146.4" r="13.3"/>
          <circle class="st6" cx="475" cy="119.8" r="13.3"/>
        </g>
        <g>
          <circle class="st6" cx="97.7" cy="438.6" r="13.3"/>
          <circle class="st6" cx="124.3" cy="412" r="13.3"/>
          <circle class="st6" cx="150.9" cy="385.4" r="13.3"/>
          <circle class="st6" cx="177.4" cy="358.9" r="13.3"/>
          <circle class="st6" cx="204" cy="332.3" r="13.3"/>
          <circle class="st6" cx="230.6" cy="305.8" r="13.3"/>
          <circle class="st6" cx="257.1" cy="279.2" r="13.3"/>
          <circle class="st6" cx="283.7" cy="252.6" r="13.3"/>
          <circle class="st6" cx="310.3" cy="226.1" r="13.3"/>
          <circle class="st6" cx="336.8" cy="199.5" r="13.3"/>
          <circle class="st6" cx="363.4" cy="172.9" r="13.3"/>
          <circle class="st6" cx="390" cy="146.4" r="13.3"/>
          <circle class="st6" cx="416.5" cy="119.8" r="13.3"/>
        </g>
        <g>
          <circle class="st6" cx="39.3" cy="438.6" r="13.3"/>
          <circle class="st6" cx="65.9" cy="412" r="13.3"/>
          <circle class="st6" cx="92.4" cy="385.4" r="13.3"/>
          <circle class="st6" cx="119" cy="358.9" r="13.3"/>
          <circle class="st6" cx="145.6" cy="332.3" r="13.3"/>
          <circle class="st6" cx="172.1" cy="305.8" r="13.3"/>
          <circle class="st6" cx="198.7" cy="279.2" r="13.3"/>
          <circle class="st6" cx="225.3" cy="252.6" r="13.3"/>
          <circle class="st6" cx="251.8" cy="226.1" r="13.3"/>
          <circle class="st6" cx="278.4" cy="199.5" r="13.3"/>
          <circle class="st6" cx="305" cy="172.9" r="13.3"/>
          <circle class="st6" cx="331.5" cy="146.4" r="13.3"/>
          <circle class="st6" cx="358.1" cy="119.8" r="13.3"/>
        </g>
        <g>
          <circle class="st6" cx="-19.1" cy="438.6" r="13.3"/>
          <circle class="st6" cx="7.4" cy="412" r="13.3"/>
          <circle class="st6" cx="34" cy="385.4" r="13.3"/>
          <circle class="st6" cx="60.6" cy="358.9" r="13.3"/>
          <circle class="st6" cx="87.1" cy="332.3" r="13.3"/>
          <circle class="st6" cx="113.7" cy="305.8" r="13.3"/>
          <circle class="st6" cx="140.3" cy="279.2" r="13.3"/>
          <circle class="st6" cx="166.8" cy="252.6" r="13.3"/>
          <circle class="st6" cx="193.4" cy="226.1" r="13.3"/>
          <circle class="st6" cx="220" cy="199.5" r="13.3"/>
          <circle class="st6" cx="246.5" cy="172.9" r="13.3"/>
          <circle class="st6" cx="273.1" cy="146.4" r="13.3"/>
          <circle class="st6" cx="299.7" cy="119.8" r="13.3"/>
        </g>
        <g>
          <circle class="st6" cx="-77.6" cy="438.6" r="13.3"/>
          <circle class="st6" cx="-51" cy="412" r="13.3"/>
          <circle class="st6" cx="-24.4" cy="385.4" r="13.3"/>
          <circle class="st6" cx="2.1" cy="358.9" r="13.3"/>
          <circle class="st6" cx="28.7" cy="332.3" r="13.3"/>
          <circle class="st6" cx="55.3" cy="305.8" r="13.3"/>
          <circle class="st6" cx="81.8" cy="279.2" r="13.3"/>
          <circle class="st6" cx="108.4" cy="252.6" r="13.3"/>
          <circle class="st6" cx="135" cy="226.1" r="13.3"/>
          <circle class="st6" cx="161.5" cy="199.5" r="13.3"/>
          <circle class="st6" cx="188.1" cy="172.9" r="13.3"/>
          <circle class="st6" cx="214.7" cy="146.4" r="13.3"/>
          <circle class="st6" cx="241.2" cy="119.8" r="13.3"/>
        </g>
      </g>
    </g>
  </g>
  <g id="el-encanto-ii">
    <g class="st14">
      <g>
        <line class="st4" x1="217.8" y1="304.1" x2="53.1" y2="139.4"/>
        <line class="st4" x1="235.8" y1="304.1" x2="71.1" y2="139.4"/>
        <line class="st4" x1="253.8" y1="304.1" x2="89.1" y2="139.4"/>
        <line class="st4" x1="271.9" y1="304.1" x2="107.1" y2="139.4"/>
        <line class="st4" x1="289.9" y1="304.1" x2="125.1" y2="139.4"/>
        <line class="st4" x1="307.9" y1="304.1" x2="143.1" y2="139.4"/>
        <line class="st4" x1="325.9" y1="304.1" x2="161.1" y2="139.4"/>
        <line class="st4" x1="343.9" y1="304.1" x2="179.2" y2="139.4"/>
        <line class="st4" x1="361.9" y1="304.1" x2="197.2" y2="139.4"/>
        <line class="st4" x1="379.9" y1="304.1" x2="178" y2="102.3"/>
        <line class="st4" x1="379.9" y1="287.9" x2="178" y2="86"/>
        <line class="st4" x1="379.9" y1="271.6" x2="178" y2="69.7"/>
        <line class="st4" x1="379.9" y1="255.3" x2="178" y2="53.4"/>
        <line class="st4" x1="379.9" y1="239" x2="178" y2="37.1"/>
        <line class="st4" x1="379.9" y1="222.7" x2="178" y2="20.8"/>
        <line class="st4" x1="379.9" y1="206.4" x2="178" y2="4.6"/>
      </g>
      <g>
        <line class="st4" x1="409.9" y1="218" x2="245.2" y2="53.3"/>
        <line class="st4" x1="427.9" y1="218" x2="263.2" y2="53.3"/>
        <line class="st4" x1="445.9" y1="218" x2="281.2" y2="53.3"/>
        <line class="st4" x1="463.9" y1="218" x2="299.2" y2="53.3"/>
        <line class="st4" x1="481.9" y1="218" x2="317.2" y2="53.3"/>
        <line class="st4" x1="499.9" y1="218" x2="335.2" y2="53.3"/>
      </g>
    </g>
  </g>
  <g id="yulo-awaskira">
    <g class="st12">
      <g>
        <line class="st5" x1="392.5" y1="512.7" x2="227.8" y2="348"/>
        <line class="st5" x1="410.5" y1="512.7" x2="245.8" y2="348"/>
        <line class="st5" x1="428.5" y1="512.7" x2="263.8" y2="348"/>
        <line class="st5" x1="446.5" y1="512.7" x2="281.8" y2="348"/>
        <line class="st5" x1="464.5" y1="512.7" x2="299.8" y2="348"/>
        <line class="st5" x1="482.5" y1="512.7" x2="317.8" y2="348"/>
        <line class="st5" x1="500.6" y1="512.7" x2="335.8" y2="348"/>
        <line class="st5" x1="518.6" y1="512.7" x2="353.8" y2="348"/>
        <line class="st5" x1="536.6" y1="512.7" x2="371.8" y2="348"/>
        <line class="st5" x1="554.6" y1="512.7" x2="352.7" y2="310.9"/>
        <line class="st5" x1="554.6" y1="496.5" x2="352.7" y2="294.6"/>
        <line class="st5" x1="554.6" y1="480.2" x2="352.7" y2="278.3"/>
        <line class="st5" x1="554.6" y1="463.9" x2="352.7" y2="262"/>
        <line class="st5" x1="554.6" y1="447.6" x2="352.7" y2="245.7"/>
        <line class="st5" x1="554.6" y1="431.3" x2="352.7" y2="229.4"/>
        <line class="st5" x1="554.6" y1="415" x2="352.7" y2="213.2"/>
      </g>
    </g>
  </g>
  <g id="puerto-cabezas">
    <g class="st13">
      <g>
        <g>
          <circle class="st3" cx="247.2" cy="591.1" r="4.9"/>
          <circle class="st3" cx="257" cy="581.4" r="4.9"/>
          <circle class="st3" cx="266.7" cy="571.7" r="4.9"/>
          <circle class="st3" cx="276.5" cy="561.9" r="4.9"/>
          <circle class="st3" cx="286.2" cy="552.2" r="4.9"/>
          <circle class="st3" cx="296" cy="542.4" r="4.9"/>
          <circle class="st3" cx="305.7" cy="532.7" r="4.9"/>
          <circle class="st3" cx="315.5" cy="522.9" r="4.9"/>
          <circle class="st3" cx="325.2" cy="513.2" r="4.9"/>
          <circle class="st3" cx="335" cy="503.4" r="4.9"/>
          <circle class="st3" cx="344.7" cy="493.7" r="4.9"/>
        </g>
        <g>
          <circle class="st3" cx="268.9" cy="591.1" r="4.9"/>
          <circle class="st3" cx="278.6" cy="581.4" r="4.9"/>
          <circle class="st3" cx="288.4" cy="571.7" r="4.9"/>
          <circle class="st3" cx="298.1" cy="561.9" r="4.9"/>
          <circle class="st3" cx="307.9" cy="552.2" r="4.9"/>
          <circle class="st3" cx="317.6" cy="542.4" r="4.9"/>
          <circle class="st3" cx="327.4" cy="532.7" r="4.9"/>
          <circle class="st3" cx="337.1" cy="522.9" r="4.9"/>
          <circle class="st3" cx="346.9" cy="513.2" r="4.9"/>
          <circle class="st3" cx="356.6" cy="503.4" r="4.9"/>
          <circle class="st3" cx="366.4" cy="493.7" r="4.9"/>
        </g>
        <g>
          <circle class="st3" cx="290.5" cy="591.1" r="4.9"/>
          <circle class="st3" cx="300.3" cy="581.4" r="4.9"/>
          <circle class="st3" cx="310" cy="571.7" r="4.9"/>
          <circle class="st3" cx="319.8" cy="561.9" r="4.9"/>
          <circle class="st3" cx="329.5" cy="552.2" r="4.9"/>
          <circle class="st3" cx="339.2" cy="542.4" r="4.9"/>
          <circle class="st3" cx="349" cy="532.7" r="4.9"/>
          <circle class="st3" cx="358.7" cy="522.9" r="4.9"/>
          <circle class="st3" cx="368.5" cy="513.2" r="4.9"/>
          <circle class="st3" cx="378.2" cy="503.4" r="4.9"/>
          <circle class="st3" cx="388" cy="493.7" r="4.9"/>
        </g>
        <g>
          <circle class="st3" cx="312.3" cy="591.1" r="4.9"/>
          <circle class="st3" cx="322" cy="581.4" r="4.9"/>
          <circle class="st3" cx="331.8" cy="571.7" r="4.9"/>
          <circle class="st3" cx="341.5" cy="561.9" r="4.9"/>
          <circle class="st3" cx="351.3" cy="552.2" r="4.9"/>
          <circle class="st3" cx="361" cy="542.4" r="4.9"/>
          <circle class="st3" cx="370.8" cy="532.7" r="4.9"/>
          <circle class="st3" cx="380.5" cy="522.9" r="4.9"/>
          <circle class="st3" cx="390.3" cy="513.2" r="4.9"/>
          <circle class="st3" cx="400" cy="503.4" r="4.9"/>
          <circle class="st3" cx="409.8" cy="493.7" r="4.9"/>
        </g>
        <g>
          <circle class="st3" cx="333.9" cy="591.1" r="4.9"/>
          <circle class="st3" cx="343.7" cy="581.4" r="4.9"/>
          <circle class="st3" cx="353.4" cy="571.7" r="4.9"/>
          <circle class="st3" cx="363.2" cy="561.9" r="4.9"/>
          <circle class="st3" cx="372.9" cy="552.2" r="4.9"/>
          <circle class="st3" cx="382.6" cy="542.4" r="4.9"/>
          <circle class="st3" cx="392.4" cy="532.7" r="4.9"/>
          <circle class="st3" cx="402.1" cy="522.9" r="4.9"/>
          <circle class="st3" cx="411.9" cy="513.2" r="4.9"/>
          <circle class="st3" cx="421.6" cy="503.4" r="4.9"/>
          <circle class="st3" cx="431.4" cy="493.7" r="4.9"/>
        </g>
        <g>
          <circle class="st3" cx="355.5" cy="591.1" r="4.9"/>
          <circle class="st3" cx="365.3" cy="581.4" r="4.9"/>
          <circle class="st3" cx="375" cy="571.7" r="4.9"/>
          <circle class="st3" cx="384.8" cy="561.9" r="4.9"/>
          <circle class="st3" cx="394.5" cy="552.2" r="4.9"/>
          <circle class="st3" cx="404.3" cy="542.4" r="4.9"/>
          <circle class="st3" cx="414" cy="532.7" r="4.9"/>
          <circle class="st3" cx="423.8" cy="522.9" r="4.9"/>
          <circle class="st3" cx="433.5" cy="513.2" r="4.9"/>
          <circle class="st3" cx="443.3" cy="503.4" r="4.9"/>
          <circle class="st3" cx="453" cy="493.7" r="4.9"/>
        </g>
      </g>
    </g>
  </g>
  <g id="walpa-tara">
    <g class="st15">
      <g>
        <line class="st2" x1="-394.4" y1="450.3" x2="-26.9" y2="817.7"/>
        <line class="st2" x1="-371.7" y1="450.3" x2="-4.3" y2="817.7"/>
        <line class="st2" x1="-349.1" y1="450.3" x2="18.3" y2="817.7"/>
        <line class="st2" x1="-326.5" y1="450.3" x2="40.9" y2="817.7"/>
        <line class="st2" x1="-303.9" y1="450.3" x2="63.5" y2="817.7"/>
        <line class="st2" x1="-281.3" y1="450.3" x2="86.2" y2="817.7"/>
        <line class="st2" x1="-258.6" y1="450.3" x2="108.8" y2="817.7"/>
        <line class="st2" x1="-236" y1="450.3" x2="131.4" y2="817.7"/>
        <line class="st2" x1="-213.4" y1="450.3" x2="154" y2="817.7"/>
        <line class="st2" x1="-190.8" y1="450.3" x2="176.6" y2="817.7"/>
        <line class="st2" x1="-168.2" y1="450.3" x2="199.3" y2="817.7"/>
        <line class="st2" x1="-145.5" y1="450.3" x2="221.9" y2="817.7"/>
        <line class="st2" x1="-122.9" y1="450.3" x2="244.5" y2="817.7"/>
        <line class="st2" x1="-100.3" y1="450.3" x2="267.1" y2="817.7"/>
        <line class="st2" x1="-77.7" y1="450.3" x2="289.7" y2="817.7"/>
        <line class="st2" x1="-55" y1="450.3" x2="312.4" y2="817.7"/>
        <line class="st2" x1="-32.4" y1="450.3" x2="335" y2="817.7"/>
        <line class="st2" x1="-9.8" y1="450.3" x2="357.6" y2="817.7"/>
        <line class="st2" x1="12.8" y1="450.3" x2="380.2" y2="817.7"/>
        <line class="st2" x1="35.4" y1="450.3" x2="402.9" y2="817.7"/>
        <line class="st2" x1="58.1" y1="450.3" x2="425.5" y2="817.7"/>
        <line class="st2" x1="80.7" y1="450.3" x2="448.1" y2="817.7"/>
        <line class="st2" x1="103.3" y1="450.3" x2="470.7" y2="817.7"/>
        <line class="st2" x1="125.9" y1="450.3" x2="493.3" y2="817.7"/>
        <line class="st2" x1="148.5" y1="450.3" x2="516" y2="817.7"/>
        <line class="st2" x1="171.2" y1="450.3" x2="538.6" y2="817.7"/>
        <line class="st2" x1="193.8" y1="450.3" x2="561.2" y2="817.7"/>
        <line class="st2" x1="216.4" y1="450.3" x2="583.8" y2="817.7"/>
        <line class="st2" x1="239" y1="450.3" x2="606.4" y2="817.7"/>
      </g>
    </g>
  </g>
  <g id="reserva-minera">
    <polygon class="st8" points="318.6 458.3 318.6 500.6 339.1 500.6 339.1 503.9 359.6 503.9 359.6 509.2 375.3 509.2 375.3 459.8 318.6 458.3"/>
  </g>
  <g id="Layer_11">
    <path d="M670,182.8l54.3,48.6-63.2-156.6v-.3s0,.1,0,.1h0c0-.1,0,.2,0,.2l-63.2,156.6,54.3-48.6c5.1-4.6,12.8-4.6,17.9,0Z"/>
  </g>
  <g id="poblados">
    <polygon class="st9" points="646.3 272.3 629.4 306.2 664 306.2 646.3 272.3"/>
    <polygon class="st9" points="540.8 377 523.8 410.9 558.5 410.9 540.8 377"/>
    <polygon class="st9" points="316.5 547.2 299.5 581.1 334.2 581.1 316.5 547.2"/>
    <polygon class="st9" points="434.8 279 417.9 312.9 452.5 312.9 434.8 279"/>
    <polygon class="st9" points="438.2 308.3 421.2 342.2 455.9 342.2 438.2 308.3"/>
    <polygon class="st9" points="464.1 599.1 447.2 633 481.8 633 464.1 599.1"/>
    <polygon class="st9" points="173.3 787.3 156.4 821.2 191 821.2 173.3 787.3"/>
  </g>
  <g id="lugares">
    <text class="st10" transform="translate(191.1 784.2)"><tspan x="0" y="0">Lapan</tspan></text>
    <text class="st10" transform="translate(480.9 597.5)"><tspan x="0" y="0">Kligna</tspan></text>
    <text class="st10" transform="translate(334.9 543.9)"><tspan x="0" y="0">SukatPin</tspan></text>
    <text class="st10" transform="translate(557.6 376.2)"><tspan x="0" y="0">Yulu</tspan></text>
    <text class="st10" transform="translate(453.6 310.8)"><tspan x="0" y="0">Mani Wátla</tspan></text>
    <text class="st10" transform="translate(451.6 280.9)"><tspan x="0" y="0">Cuarenta y Tres</tspan></text>
    <text class="st10" transform="translate(661.7 274.6)"><tspan x="0" y="0">El Lanchon</tspan></text>
  </g>
</svg>